<svg width="34" height="34" viewBox="0 0 34 34" fill="none" xmlns="http://www.w3.org/2000/svg">
<path fill-rule="evenodd" clip-rule="evenodd" d="M10.7996 22.5729C10.5739 22.9069 10.627 23.368 10.9399 23.6486C11.2813 23.9548 11.8026 23.9303 12.1043 23.5939L21.7066 12.8873L22.1472 20.261L22.1633 20.3822C22.2458 20.7763 22.6063 21.0654 23.0197 21.0468C23.4745 21.0264 23.8212 20.6414 23.7941 20.187L23.236 10.8366C23.2338 10.782 23.2262 10.7275 23.2132 10.674C23.1208 10.2914 22.7649 10.0145 22.359 10.0345L12.9875 10.4951L12.8664 10.51C12.4732 10.5882 12.1904 10.9451 12.2168 11.3582C12.2459 11.8125 12.638 12.1627 13.0926 12.1403L20.4712 11.7776L10.8681 22.4852L10.7996 22.5729Z" fill="#B2BED7"/>
</svg>
