<svg width="24" height="24" viewBox="0 0 24 24" fill="none" xmlns="http://www.w3.org/2000/svg">
<path d="M12.058 2.00016C8.54635 1.98605 5.28554 3.80693 3.46059 6.80002C1.63541 9.7935 1.51288 13.5226 3.13765 16.6291L3.32147 16.9874C3.39175 17.1191 3.40531 17.2612 3.36458 17.3926C3.10204 18.0864 2.87136 18.8356 2.6873 19.5969L2.66776 19.7608C2.66776 20.5263 3.07616 21.0522 3.88671 21.0342L4.02167 21.018C4.75798 20.8554 5.4831 20.6459 6.19261 20.3908C6.28665 20.367 6.4407 20.3762 6.57971 20.4331L7.26224 20.8194C7.26378 20.8241 7.26493 20.8277 7.27208 20.8319L7.31788 20.8479C10.9929 22.7803 15.4812 22.2472 18.5997 19.5078C21.7187 16.768 22.8199 12.39 21.3675 8.50379C19.9153 4.61795 16.2115 2.03069 12.058 2.00016Z" fill="#0372E4" fill-opacity="0.2"/>
<path fill-rule="evenodd" clip-rule="evenodd" d="M12.058 2.00008C8.54635 1.98597 5.28554 3.80685 3.46059 6.79994C1.63541 9.79342 1.51288 13.5225 3.13765 16.629L3.32147 16.9873C3.39175 17.1191 3.40531 17.2612 3.36458 17.3925C3.10204 18.0863 2.87136 18.8356 2.6873 19.5968L2.66776 19.7608C2.66776 20.5262 3.07616 21.0521 3.88671 21.0341L4.02167 21.0179C4.75798 20.8553 5.4831 20.6458 6.19261 20.3907C6.28665 20.3669 6.4407 20.3762 6.57971 20.433L7.26224 20.8193C7.26378 20.824 7.26493 20.8276 7.27208 20.8318L7.31788 20.8478C10.9929 22.7802 15.4812 22.2471 18.5997 19.5077C21.7187 16.7679 22.8199 12.39 21.3675 8.50371C19.9153 4.61787 16.2115 2.03061 12.058 2.00008ZM11.7676 3.39887L12.0484 3.39447C15.6231 3.42166 18.8109 5.64845 20.0606 8.99219C21.3101 12.3355 20.3627 16.1019 17.6789 18.4594L17.4587 18.6464C14.8627 20.7779 11.2583 21.2075 8.23277 19.7466L7.94503 19.6024L7.95737 19.6041L7.93916 19.5991L7.51685 19.3568C7.36478 19.2708 7.24415 19.2057 7.14693 19.1589C6.68377 18.9679 6.21361 18.9398 5.77141 19.0616L5.35279 19.2053C5.07613 19.2967 4.80379 19.3793 4.5328 19.454L4.13775 19.5571L4.04363 19.9247C4.21427 19.219 4.42811 18.5245 4.68396 17.8449C4.8486 17.3181 4.79826 16.7904 4.55762 16.3401L4.3767 15.9872C2.97634 13.3097 3.08175 10.1017 4.65203 7.52633C6.17345 5.03105 8.85502 3.4822 11.7676 3.39887ZM6.47459 12C6.47459 11.3698 6.98585 10.8594 7.61596 10.8594C8.24606 10.8594 8.75732 11.3698 8.75732 12C8.75732 12.6303 8.24606 13.1407 7.61596 13.1407C6.98585 13.1407 6.47459 12.6303 6.47459 12ZM10.9114 12C10.9114 11.3698 11.4227 10.8594 12.0528 10.8594C12.6829 10.8594 13.1942 11.3698 13.1942 12C13.1942 12.6303 12.6829 13.1407 12.0528 13.1407C11.4227 13.1407 10.9114 12.6303 10.9114 12ZM16.4898 10.8594C15.8597 10.8594 15.3484 11.3698 15.3484 12C15.3484 12.6303 15.8597 13.1407 16.4898 13.1407C17.1199 13.1407 17.6311 12.6303 17.6311 12C17.6311 11.3698 17.1199 10.8594 16.4898 10.8594Z" fill="#1A82ED"/>
</svg>
