<svg width="28" height="28" viewBox="0 0 28 28" fill="none" xmlns="http://www.w3.org/2000/svg">
<path d="M23.9193 7H4.08594M21.9744 9.91667L21.4378 17.9667C21.2313 21.063 21.1286 22.6112 20.1194 23.555C19.1103 24.5 17.5574 24.5 14.4541 24.5H13.5511C10.4478 24.5 8.89494 24.5 7.88577 23.555C6.8766 22.6112 6.77277 21.063 6.56744 17.9667L6.03077 9.91667M11.0859 12.8333L11.6693 18.6667M16.9193 12.8333L16.3359 18.6667" stroke="#0968CA" stroke-width="1.5" stroke-linecap="round"/>
<path d="M7.58594 7H7.71427C8.18379 6.988 8.63876 6.83459 9.01968 6.55983C9.4006 6.28507 9.68973 5.90175 9.84927 5.46L9.88894 5.33983L10.0021 5.00033C10.0989 4.70983 10.1479 4.56517 10.2121 4.4415C10.3383 4.19929 10.5195 3.98999 10.7412 3.83035C10.9628 3.67071 11.2187 3.56517 11.4884 3.52217C11.6249 3.5 11.7778 3.5 12.0834 3.5H15.9218C16.2274 3.5 16.3803 3.5 16.5168 3.52217C16.7865 3.56517 17.0424 3.67071 17.264 3.83035C17.4857 3.98999 17.6669 4.19929 17.7931 4.4415C17.8573 4.56517 17.9063 4.70983 18.0031 5.00033L18.1163 5.33983C18.2641 5.83132 18.5699 6.26034 18.9862 6.56047C19.4026 6.8606 19.9063 7.01508 20.4193 7" stroke="#0968CA" stroke-width="1.5"/>
</svg>
