<svg width="28" height="28" viewBox="0 0 28 28" fill="none" xmlns="http://www.w3.org/2000/svg">
<path fill-rule="evenodd" clip-rule="evenodd" d="M23.7262 8.93809C24.5079 9.54359 24.9874 10.4431 25.0691 11.4219L25.0807 11.6564V21.1169C25.0807 23.5553 23.1546 25.5386 20.7407 25.6669H18.4191C17.3096 25.6448 16.4124 24.7814 16.3307 23.6964L16.3191 23.5319V20.1964C16.3191 19.8336 16.0496 19.5314 15.6891 19.4719L15.5841 19.4603H12.4679C12.0957 19.4719 11.7924 19.7403 11.7457 20.0903L11.7341 20.1964V23.5214C11.7341 23.5903 11.7212 23.6719 11.7107 23.7303L11.6991 23.7548L11.6862 23.8353C11.5474 24.8281 10.7307 25.5853 9.71573 25.6564L9.56406 25.6669H7.47573C5.0374 25.6669 3.0424 23.7548 2.91406 21.3503V11.6564C2.92456 10.6636 3.3574 9.74192 4.08073 9.10026L11.3491 3.25526C12.8307 2.07809 14.9074 2.03142 16.4346 3.11526L16.6224 3.25526L23.7262 8.93809ZM23.4462 21.3036L23.4591 21.1169V11.6669C23.4462 11.1664 23.2374 10.6986 22.8757 10.3498L22.7241 10.2203L15.6074 4.52692C14.7207 3.81526 13.4607 3.78142 12.5274 4.39859L12.3512 4.52692L5.2579 10.2448C4.85073 10.5469 4.60573 11.0019 4.5474 11.4803L4.53456 11.6669V21.1169C4.53456 22.6686 5.7479 23.9403 7.28906 24.0336H9.56406C9.82073 24.0336 10.0424 23.8598 10.0762 23.6148L10.1007 23.4048L10.1124 23.3453V20.1964C10.1124 18.9481 11.0691 17.9331 12.2941 17.8386H15.5841C16.8312 17.8386 17.8462 18.7964 17.9407 20.0214V23.5319C17.9407 23.7769 18.1157 23.9881 18.3491 24.0336H20.5179C22.0812 24.0336 23.3529 22.8331 23.4462 21.3036Z" fill="#F8EEFF"/>
</svg>
