<svg width="36" height="36" viewBox="0 0 36 36" fill="none" xmlns="http://www.w3.org/2000/svg">
<path d="M18 3.375C15.1075 3.375 12.2799 4.23274 9.87479 5.83976C7.46972 7.44677 5.5952 9.73089 4.48827 12.4033C3.38134 15.0756 3.09171 18.0162 3.65602 20.8532C4.22033 23.6902 5.61323 26.2961 7.65857 28.3414C9.70391 30.3868 12.3098 31.7797 15.1468 32.344C17.9838 32.9083 20.9244 32.6187 23.5968 31.5117C26.2691 30.4048 28.5532 28.5303 30.1602 26.1252C31.7673 23.7201 32.625 20.8926 32.625 18C32.6209 14.1225 31.0788 10.4049 28.3369 7.66309C25.5951 4.92125 21.8775 3.37909 18 3.375ZM17.4375 10.125C17.7713 10.125 18.0975 10.224 18.375 10.4094C18.6525 10.5948 18.8688 10.8584 18.9966 11.1667C19.1243 11.4751 19.1577 11.8144 19.0926 12.1417C19.0275 12.4691 18.8667 12.7697 18.6307 13.0057C18.3947 13.2417 18.0941 13.4025 17.7667 13.4676C17.4394 13.5327 17.1001 13.4993 16.7917 13.3715C16.4834 13.2438 16.2198 13.0275 16.0344 12.75C15.849 12.4725 15.75 12.1463 15.75 11.8125C15.75 11.3649 15.9278 10.9357 16.2443 10.6193C16.5607 10.3028 16.99 10.125 17.4375 10.125ZM19.125 25.875C18.5283 25.875 17.956 25.6379 17.534 25.216C17.1121 24.794 16.875 24.2217 16.875 23.625V18C16.5766 18 16.2905 17.8815 16.0795 17.6705C15.8685 17.4595 15.75 17.1734 15.75 16.875C15.75 16.5766 15.8685 16.2905 16.0795 16.0795C16.2905 15.8685 16.5766 15.75 16.875 15.75C17.4717 15.75 18.044 15.9871 18.466 16.409C18.888 16.831 19.125 17.4033 19.125 18V23.625C19.4234 23.625 19.7095 23.7435 19.9205 23.9545C20.1315 24.1655 20.25 24.4516 20.25 24.75C20.25 25.0484 20.1315 25.3345 19.9205 25.5455C19.7095 25.7565 19.4234 25.875 19.125 25.875Z" fill="#0968CA"/>
</svg>
