<svg width="22" height="22" viewBox="0 0 22 22" fill="none" xmlns="http://www.w3.org/2000/svg">
<path d="M1.83594 10.9987C1.83594 16.0614 5.93985 20.1654 11.0026 20.1654C16.0654 20.1654 20.1693 16.0614 20.1693 10.9987C20.1693 5.93595 16.0654 1.83203 11.0026 1.83203C5.93985 1.83203 1.83594 5.93595 1.83594 10.9987Z" stroke="#0968CA" stroke-width="1.5" stroke-linecap="round" stroke-linejoin="round"/>
<path d="M11.9199 1.87891C11.9199 1.87891 14.6699 5.49974 14.6699 10.9997C14.6699 16.4997 11.9199 20.1206 11.9199 20.1206M10.0866 20.1206C10.0866 20.1206 7.33656 16.4997 7.33656 10.9997C7.33656 5.49974 10.0866 1.87891 10.0866 1.87891M2.41406 14.2081H19.5924M2.41406 7.79141H19.5924" stroke="#0968CA" stroke-width="1.5" stroke-linecap="round" stroke-linejoin="round"/>
</svg>
