<svg width="24" height="24" viewBox="0 0 24 24" fill="none" xmlns="http://www.w3.org/2000/svg">
<path d="M9.05699 22.75C10.424 22.75 11.527 22.75 12.394 22.633C13.294 22.513 14.052 22.253 14.654 21.652C15.178 21.127 15.444 20.482 15.583 19.724C15.718 18.987 15.744 18.086 15.75 17.004C15.7511 16.8051 15.673 16.6139 15.5331 16.4725C15.3932 16.3311 15.2029 16.2511 15.004 16.25C14.8051 16.2489 14.6139 16.3269 14.4725 16.4668C14.3311 16.6067 14.2511 16.7971 14.25 16.996C14.244 18.089 14.216 18.864 14.108 19.453C14.003 20.019 13.836 20.348 13.593 20.591C13.316 20.868 12.927 21.048 12.193 21.147C11.438 21.248 10.437 21.25 9.00199 21.25H8.00199C6.56599 21.25 5.56499 21.248 4.80999 21.147C4.07599 21.048 3.68799 20.867 3.40999 20.591C3.13399 20.314 2.95399 19.926 2.85499 19.191C2.75299 18.437 2.75199 17.435 2.75199 16L2.75199 8C2.75199 6.565 2.75299 5.564 2.85499 4.808C2.95399 4.074 3.13399 3.686 3.41099 3.409C3.68799 3.132 4.07599 2.952 4.80999 2.853C5.56499 2.752 6.56599 2.75 8.00199 2.75H9.00199C10.437 2.75 11.438 2.752 12.194 2.853C12.927 2.952 13.316 3.133 13.593 3.409C13.836 3.653 14.003 3.981 14.108 4.547C14.216 5.136 14.244 5.911 14.25 7.004C14.2505 7.10249 14.2704 7.19991 14.3086 7.29071C14.3468 7.3815 14.4025 7.46389 14.4725 7.53316C14.5425 7.60243 14.6255 7.65724 14.7167 7.69444C14.8079 7.73165 14.9055 7.75053 15.004 7.75C15.1025 7.74947 15.1999 7.72956 15.2907 7.69138C15.3815 7.6532 15.4639 7.59752 15.5331 7.5275C15.6024 7.45749 15.6572 7.37451 15.6944 7.28332C15.7316 7.19212 15.7505 7.09449 15.75 6.996C15.744 5.914 15.718 5.013 15.583 4.276C15.443 3.518 15.178 2.873 14.653 2.348C14.052 1.746 13.293 1.488 12.393 1.366C11.527 1.25 10.424 1.25 9.05699 1.25H7.94699C6.57899 1.25 5.47699 1.25 4.60999 1.366C3.70999 1.488 2.95199 1.746 2.34999 2.348C1.74799 2.95 1.48999 3.708 1.36799 4.608C1.25199 5.475 1.25199 6.578 1.25199 7.945L1.25199 16.055C1.25199 17.422 1.25199 18.525 1.36799 19.392C1.48899 20.292 1.74799 21.05 2.34999 21.652C2.95199 22.254 3.70999 22.512 4.60999 22.633C5.47699 22.75 6.57999 22.75 7.94699 22.75H9.05699Z" fill="#0968CA"/>
<path d="M8.99944 12.7496C8.80053 12.7496 8.60977 12.6706 8.46911 12.53C8.32846 12.3893 8.24944 12.1985 8.24944 11.9996C8.24944 11.8007 8.32846 11.61 8.46911 11.4693C8.60977 11.3287 8.80053 11.2496 8.99944 11.2496L19.9724 11.2496L18.0114 9.56964C17.8603 9.44021 17.7667 9.25603 17.7513 9.05762C17.7359 8.85921 17.8 8.66281 17.9294 8.51164C18.0589 8.36046 18.243 8.2669 18.4415 8.25152C18.6399 8.23614 18.8363 8.30021 18.9874 8.42964L22.4874 11.4296C22.5698 11.5 22.6359 11.5875 22.6812 11.6859C22.7265 11.7843 22.75 11.8913 22.75 11.9996C22.75 12.108 22.7265 12.215 22.6812 12.3134C22.6359 12.4118 22.5698 12.4992 22.4874 12.5696L18.9874 15.5696C18.9126 15.6337 18.8258 15.6824 18.7322 15.713C18.6385 15.7436 18.5397 15.7554 18.4415 15.7478C18.3432 15.7401 18.2474 15.7133 18.1596 15.6686C18.0717 15.624 17.9935 15.5625 17.9294 15.4876C17.8654 15.4128 17.8166 15.326 17.7861 15.2324C17.7555 15.1387 17.7437 15.0399 17.7513 14.9417C17.7589 14.8434 17.7858 14.7476 17.8305 14.6598C17.8751 14.5719 17.9366 14.4937 18.0114 14.4296L19.9714 12.7496L8.99944 12.7496Z" fill="#0968CA"/>
</svg>
