<svg width="24" height="24" viewBox="0 0 24 24" fill="none" xmlns="http://www.w3.org/2000/svg">
<g clip-path="url(#clip0_2608_23585)">
<path d="M11.7658 14.3346V14.407L11.7222 14.396C11.6811 14.3856 11.6408 14.3751 11.6013 14.3645L11.6475 14.0547H11.7658V14.3346Z" fill="#0968CA" stroke="#F0F4FF" stroke-width="1.5625"/>
<mask id="path-2-inside-1_2608_23585" fill="white">
<path d="M19.4207 10.5404C18.5523 9.35639 17.1663 7.61198 15.9087 6.66722L17.8887 1.71722C17.9639 1.5608 18.0063 1.3852 18.0063 1.2C18.0063 0.537609 17.4727 0.000421875 16.8103 0C16.8079 0 16.8055 0 16.8031 0C16.7779 0 16.7527 0.000796875 16.7271 0.00239062C16.5575 0.0131719 16.3975 0.0587812 16.2543 0.132797C16.0647 0.224016 13.9919 1.2 12.0031 1.2C9.92713 1.2 7.75991 0.136406 7.73834 0.126C7.56875 0.042 7.38594 0.000796875 7.20434 0.000796875C6.90875 0.000796875 6.61677 0.109594 6.38994 0.318797C6.02436 0.656391 5.90394 1.18402 6.08872 1.64602L8.09713 6.66759C6.83952 7.61241 5.45352 9.35681 4.58511 10.5408C3.32234 12.2628 1.20312 15.5224 1.20312 18C1.20312 21.3084 3.89473 24 7.20313 24H16.8031C20.1115 24 22.8031 21.3084 22.8031 18C22.8031 15.5224 20.6839 12.2628 19.4207 10.5404ZM7.20313 1.2C7.20313 1.2 9.60313 2.4 12.0031 2.4C14.4031 2.4 16.8031 1.2 16.8031 1.2L14.8831 6H9.12313L7.20313 1.2ZM16.8031 22.8H7.20313C4.55192 22.8 2.40313 20.6508 2.40313 18C2.40313 14.4 8.40313 7.2 9.60313 7.2H14.4031C15.6031 7.2 21.6031 14.4 21.6031 18C21.6031 20.6508 19.4543 22.8 16.8031 22.8Z"/>
</mask>
<path d="M19.4207 10.5404C18.5523 9.35639 17.1663 7.61198 15.9087 6.66722L17.8887 1.71722C17.9639 1.5608 18.0063 1.3852 18.0063 1.2C18.0063 0.537609 17.4727 0.000421875 16.8103 0C16.8079 0 16.8055 0 16.8031 0C16.7779 0 16.7527 0.000796875 16.7271 0.00239062C16.5575 0.0131719 16.3975 0.0587812 16.2543 0.132797C16.0647 0.224016 13.9919 1.2 12.0031 1.2C9.92713 1.2 7.75991 0.136406 7.73834 0.126C7.56875 0.042 7.38594 0.000796875 7.20434 0.000796875C6.90875 0.000796875 6.61677 0.109594 6.38994 0.318797C6.02436 0.656391 5.90394 1.18402 6.08872 1.64602L8.09713 6.66759C6.83952 7.61241 5.45352 9.35681 4.58511 10.5408C3.32234 12.2628 1.20312 15.5224 1.20312 18C1.20312 21.3084 3.89473 24 7.20313 24H16.8031C20.1115 24 22.8031 21.3084 22.8031 18C22.8031 15.5224 20.6839 12.2628 19.4207 10.5404ZM7.20313 1.2C7.20313 1.2 9.60313 2.4 12.0031 2.4C14.4031 2.4 16.8031 1.2 16.8031 1.2L14.8831 6H9.12313L7.20313 1.2ZM16.8031 22.8H7.20313C4.55192 22.8 2.40313 20.6508 2.40313 18C2.40313 14.4 8.40313 7.2 9.60313 7.2H14.4031C15.6031 7.2 21.6031 14.4 21.6031 18C21.6031 20.6508 19.4543 22.8 16.8031 22.8Z" fill="#0968CA"/>
<path d="M19.4207 10.5404L20.6807 9.61635L20.6807 9.61631L19.4207 10.5404ZM15.9087 6.66722L14.458 6.08692L14.0136 7.19783L14.9702 7.91647L15.9087 6.66722ZM17.8887 1.71722L16.4804 1.04031L16.4576 1.0879L16.438 1.13692L17.8887 1.71722ZM16.8103 0L16.8113 -1.5625H16.8103V0ZM16.7271 0.00239062L16.63 -1.55709L16.628 -1.55696L16.7271 0.00239062ZM16.2543 0.132797L16.9317 1.54083L16.9519 1.53113L16.9717 1.52085L16.2543 0.132797ZM7.73834 0.126L7.04484 1.52616L7.05201 1.52972L7.05922 1.53319L7.73834 0.126ZM6.38994 0.318797L5.33061 -0.82978L5.32989 -0.829119L6.38994 0.318797ZM6.08872 1.64602L7.53949 1.06577L7.53948 1.06577L6.08872 1.64602ZM8.09713 6.66759L9.03565 7.91683L9.99218 7.1982L9.54789 6.08735L8.09713 6.66759ZM4.58511 10.5408L3.32518 9.61666L3.32509 9.61679L4.58511 10.5408ZM7.20313 1.2L7.9019 -0.197542L4.22608 -2.03545L5.75238 1.7803L7.20313 1.2ZM16.8031 1.2L18.2539 1.7803L19.7802 -2.03545L16.1044 -0.197542L16.8031 1.2ZM14.8831 6V7.5625H15.941L16.3339 6.5803L14.8831 6ZM9.12313 6L7.67238 6.5803L8.06526 7.5625H9.12313V6ZM21.6031 18H20.0406H21.6031ZM20.6807 9.61631C19.816 8.43743 18.3103 6.51714 16.8472 5.41796L14.9702 7.91647C16.0223 8.70683 17.2886 10.2754 18.1608 11.4645L20.6807 9.61631ZM17.3594 7.24752L19.3394 2.29752L16.438 1.13692L14.458 6.08692L17.3594 7.24752ZM19.297 2.39413C19.4709 2.03226 19.5688 1.62586 19.5688 1.2H16.4438C16.4438 1.14454 16.4569 1.08934 16.4804 1.04031L19.297 2.39413ZM19.5688 1.2C19.5688 -0.319427 18.3418 -1.56152 16.8113 -1.5625L16.8093 1.5625C16.6037 1.56237 16.4438 1.39465 16.4438 1.2H19.5688ZM16.8103 -1.5625C16.8103 -1.5625 16.8103 -1.5625 16.8103 -1.5625C16.8103 -1.5625 16.8103 -1.5625 16.8103 -1.5625C16.8103 -1.5625 16.8103 -1.5625 16.8103 -1.5625C16.8103 -1.5625 16.8102 -1.5625 16.8102 -1.5625C16.8102 -1.5625 16.8102 -1.5625 16.8102 -1.5625C16.8102 -1.5625 16.8102 -1.5625 16.8102 -1.5625C16.8102 -1.5625 16.8102 -1.5625 16.8102 -1.5625C16.8102 -1.5625 16.8102 -1.5625 16.8102 -1.5625C16.8102 -1.5625 16.8102 -1.5625 16.8102 -1.5625C16.8102 -1.5625 16.8102 -1.5625 16.8102 -1.5625C16.8102 -1.5625 16.8101 -1.5625 16.8101 -1.5625C16.8101 -1.5625 16.8101 -1.5625 16.8101 -1.5625C16.8101 -1.5625 16.8101 -1.5625 16.8101 -1.5625C16.8101 -1.5625 16.8101 -1.5625 16.8101 -1.5625C16.8101 -1.5625 16.8101 -1.5625 16.8101 -1.5625C16.8101 -1.5625 16.8101 -1.5625 16.8101 -1.5625C16.8101 -1.5625 16.8101 -1.5625 16.8101 -1.5625C16.8101 -1.5625 16.8101 -1.5625 16.81 -1.5625C16.81 -1.5625 16.81 -1.5625 16.81 -1.5625C16.81 -1.5625 16.81 -1.5625 16.81 -1.5625C16.81 -1.5625 16.81 -1.5625 16.81 -1.5625C16.81 -1.5625 16.81 -1.5625 16.81 -1.5625C16.81 -1.5625 16.81 -1.5625 16.81 -1.5625C16.81 -1.5625 16.81 -1.5625 16.81 -1.5625C16.81 -1.5625 16.81 -1.5625 16.8099 -1.5625C16.8099 -1.5625 16.8099 -1.5625 16.8099 -1.5625C16.8099 -1.5625 16.8099 -1.5625 16.8099 -1.5625C16.8099 -1.5625 16.8099 -1.5625 16.8099 -1.5625C16.8099 -1.5625 16.8099 -1.5625 16.8099 -1.5625C16.8099 -1.5625 16.8099 -1.5625 16.8099 -1.5625C16.8099 -1.5625 16.8099 -1.5625 16.8099 -1.5625C16.8099 -1.5625 16.8099 -1.5625 16.8098 -1.5625C16.8098 -1.5625 16.8098 -1.5625 16.8098 -1.5625C16.8098 -1.5625 16.8098 -1.5625 16.8098 -1.5625C16.8098 -1.5625 16.8098 -1.5625 16.8098 -1.5625C16.8098 -1.5625 16.8098 -1.5625 16.8098 -1.5625C16.8098 -1.5625 16.8098 -1.5625 16.8098 -1.5625C16.8098 -1.5625 16.8098 -1.5625 16.8098 -1.5625C16.8098 -1.5625 16.8098 -1.5625 16.8098 -1.5625C16.8097 -1.5625 16.8097 -1.5625 16.8097 -1.5625C16.8097 -1.5625 16.8097 -1.5625 16.8097 -1.5625C16.8097 -1.5625 16.8097 -1.5625 16.8097 -1.5625C16.8097 -1.5625 16.8097 -1.5625 16.8097 -1.5625C16.8097 -1.5625 16.8097 -1.5625 16.8097 -1.5625C16.8097 -1.5625 16.8097 -1.5625 16.8097 -1.5625C16.8097 -1.5625 16.8097 -1.5625 16.8097 -1.5625C16.8096 -1.5625 16.8096 -1.5625 16.8096 -1.5625C16.8096 -1.5625 16.8096 -1.5625 16.8096 -1.5625C16.8096 -1.5625 16.8096 -1.5625 16.8096 -1.5625C16.8096 -1.5625 16.8096 -1.5625 16.8096 -1.5625C16.8096 -1.5625 16.8096 -1.5625 16.8096 -1.5625C16.8096 -1.5625 16.8096 -1.5625 16.8096 -1.5625C16.8096 -1.5625 16.8096 -1.5625 16.8096 -1.5625C16.8096 -1.5625 16.8095 -1.5625 16.8095 -1.5625C16.8095 -1.5625 16.8095 -1.5625 16.8095 -1.5625C16.8095 -1.5625 16.8095 -1.5625 16.8095 -1.5625C16.8095 -1.5625 16.8095 -1.5625 16.8095 -1.5625C16.8095 -1.5625 16.8095 -1.5625 16.8095 -1.5625C16.8095 -1.5625 16.8095 -1.5625 16.8095 -1.5625C16.8095 -1.5625 16.8095 -1.5625 16.8095 -1.5625C16.8095 -1.5625 16.8094 -1.5625 16.8094 -1.5625C16.8094 -1.5625 16.8094 -1.5625 16.8094 -1.5625C16.8094 -1.5625 16.8094 -1.5625 16.8094 -1.5625C16.8094 -1.5625 16.8094 -1.5625 16.8094 -1.5625C16.8094 -1.5625 16.8094 -1.5625 16.8094 -1.5625C16.8094 -1.5625 16.8094 -1.5625 16.8094 -1.5625C16.8094 -1.5625 16.8094 -1.5625 16.8094 -1.5625C16.8094 -1.5625 16.8094 -1.5625 16.8093 -1.5625C16.8093 -1.5625 16.8093 -1.5625 16.8093 -1.5625C16.8093 -1.5625 16.8093 -1.5625 16.8093 -1.5625C16.8093 -1.5625 16.8093 -1.5625 16.8093 -1.5625C16.8093 -1.5625 16.8093 -1.5625 16.8093 -1.5625C16.8093 -1.5625 16.8093 -1.5625 16.8093 -1.5625C16.8093 -1.5625 16.8093 -1.5625 16.8093 -1.5625C16.8093 -1.5625 16.8093 -1.5625 16.8092 -1.5625C16.8092 -1.5625 16.8092 -1.5625 16.8092 -1.5625C16.8092 -1.5625 16.8092 -1.5625 16.8092 -1.5625C16.8092 -1.5625 16.8092 -1.5625 16.8092 -1.5625C16.8092 -1.5625 16.8092 -1.5625 16.8092 -1.5625C16.8092 -1.5625 16.8092 -1.5625 16.8092 -1.5625C16.8092 -1.5625 16.8092 -1.5625 16.8092 -1.5625C16.8092 -1.5625 16.8092 -1.5625 16.8091 -1.5625C16.8091 -1.5625 16.8091 -1.5625 16.8091 -1.5625C16.8091 -1.5625 16.8091 -1.5625 16.8091 -1.5625C16.8091 -1.5625 16.8091 -1.5625 16.8091 -1.5625C16.8091 -1.5625 16.8091 -1.5625 16.8091 -1.5625C16.8091 -1.5625 16.8091 -1.5625 16.8091 -1.5625C16.8091 -1.5625 16.8091 -1.5625 16.8091 -1.5625C16.8091 -1.5625 16.8091 -1.5625 16.8091 -1.5625C16.809 -1.5625 16.809 -1.5625 16.809 -1.5625C16.809 -1.5625 16.809 -1.5625 16.809 -1.5625C16.809 -1.5625 16.809 -1.5625 16.809 -1.5625C16.809 -1.5625 16.809 -1.5625 16.809 -1.5625C16.809 -1.5625 16.809 -1.5625 16.809 -1.5625C16.809 -1.5625 16.809 -1.5625 16.809 -1.5625C16.809 -1.5625 16.809 -1.5625 16.809 -1.5625C16.8089 -1.5625 16.8089 -1.5625 16.8089 -1.5625C16.8089 -1.5625 16.8089 -1.5625 16.8089 -1.5625C16.8089 -1.5625 16.8089 -1.5625 16.8089 -1.5625C16.8089 -1.5625 16.8089 -1.5625 16.8089 -1.5625C16.8089 -1.5625 16.8089 -1.5625 16.8089 -1.5625C16.8089 -1.5625 16.8089 -1.5625 16.8089 -1.5625C16.8089 -1.5625 16.8089 -1.5625 16.8089 -1.5625C16.8089 -1.5625 16.8088 -1.5625 16.8088 -1.5625C16.8088 -1.5625 16.8088 -1.5625 16.8088 -1.5625C16.8088 -1.5625 16.8088 -1.5625 16.8088 -1.5625C16.8088 -1.5625 16.8088 -1.5625 16.8088 -1.5625C16.8088 -1.5625 16.8088 -1.5625 16.8088 -1.5625C16.8088 -1.5625 16.8088 -1.5625 16.8088 -1.5625C16.8088 -1.5625 16.8088 -1.5625 16.8088 -1.5625C16.8088 -1.5625 16.8087 -1.5625 16.8087 -1.5625C16.8087 -1.5625 16.8087 -1.5625 16.8087 -1.5625C16.8087 -1.5625 16.8087 -1.5625 16.8087 -1.5625C16.8087 -1.5625 16.8087 -1.5625 16.8087 -1.5625C16.8087 -1.5625 16.8087 -1.5625 16.8087 -1.5625C16.8087 -1.5625 16.8087 -1.5625 16.8087 -1.5625C16.8087 -1.5625 16.8087 -1.5625 16.8087 -1.5625C16.8087 -1.5625 16.8086 -1.5625 16.8086 -1.5625C16.8086 -1.5625 16.8086 -1.5625 16.8086 -1.5625C16.8086 -1.5625 16.8086 -1.5625 16.8086 -1.5625C16.8086 -1.5625 16.8086 -1.5625 16.8086 -1.5625C16.8086 -1.5625 16.8086 -1.5625 16.8086 -1.5625C16.8086 -1.5625 16.8086 -1.5625 16.8086 -1.5625C16.8086 -1.5625 16.8086 -1.5625 16.8086 -1.5625C16.8086 -1.5625 16.8086 -1.5625 16.8085 -1.5625C16.8085 -1.5625 16.8085 -1.5625 16.8085 -1.5625C16.8085 -1.5625 16.8085 -1.5625 16.8085 -1.5625C16.8085 -1.5625 16.8085 -1.5625 16.8085 -1.5625C16.8085 -1.5625 16.8085 -1.5625 16.8085 -1.5625C16.8085 -1.5625 16.8085 -1.5625 16.8085 -1.5625C16.8085 -1.5625 16.8085 -1.5625 16.8085 -1.5625C16.8085 -1.5625 16.8085 -1.5625 16.8084 -1.5625C16.8084 -1.5625 16.8084 -1.5625 16.8084 -1.5625C16.8084 -1.5625 16.8084 -1.5625 16.8084 -1.5625C16.8084 -1.5625 16.8084 -1.5625 16.8084 -1.5625C16.8084 -1.5625 16.8084 -1.5625 16.8084 -1.5625C16.8084 -1.5625 16.8084 -1.5625 16.8084 -1.5625C16.8084 -1.5625 16.8084 -1.5625 16.8084 -1.5625C16.8084 -1.5625 16.8084 -1.5625 16.8083 -1.5625C16.8083 -1.5625 16.8083 -1.5625 16.8083 -1.5625C16.8083 -1.5625 16.8083 -1.5625 16.8083 -1.5625C16.8083 -1.5625 16.8083 -1.5625 16.8083 -1.5625C16.8083 -1.5625 16.8083 -1.5625 16.8083 -1.5625C16.8083 -1.5625 16.8083 -1.5625 16.8083 -1.5625C16.8083 -1.5625 16.8083 -1.5625 16.8083 -1.5625C16.8083 -1.5625 16.8083 -1.5625 16.8083 -1.5625C16.8082 -1.5625 16.8082 -1.5625 16.8082 -1.5625C16.8082 -1.5625 16.8082 -1.5625 16.8082 -1.5625C16.8082 -1.5625 16.8082 -1.5625 16.8082 -1.5625C16.8082 -1.5625 16.8082 -1.5625 16.8082 -1.5625C16.8082 -1.5625 16.8082 -1.5625 16.8082 -1.5625C16.8082 -1.5625 16.8082 -1.5625 16.8082 -1.5625C16.8082 -1.5625 16.8082 -1.5625 16.8082 -1.5625C16.8081 -1.5625 16.8081 -1.5625 16.8081 -1.5625C16.8081 -1.5625 16.8081 -1.5625 16.8081 -1.5625C16.8081 -1.5625 16.8081 -1.5625 16.8081 -1.5625C16.8081 -1.5625 16.8081 -1.5625 16.8081 -1.5625C16.8081 -1.5625 16.8081 -1.5625 16.8081 -1.5625C16.8081 -1.5625 16.8081 -1.5625 16.8081 -1.5625C16.8081 -1.5625 16.8081 -1.5625 16.8081 -1.5625C16.8081 -1.5625 16.808 -1.5625 16.808 -1.5625C16.808 -1.5625 16.808 -1.5625 16.808 -1.5625C16.808 -1.5625 16.808 -1.5625 16.808 -1.5625C16.808 -1.5625 16.808 -1.5625 16.808 -1.5625C16.808 -1.5625 16.808 -1.5625 16.808 -1.5625C16.808 -1.5625 16.808 -1.5625 16.808 -1.5625C16.808 -1.5625 16.808 -1.5625 16.808 -1.5625C16.808 -1.5625 16.8079 -1.5625 16.8079 -1.5625C16.8079 -1.5625 16.8079 -1.5625 16.8079 -1.5625C16.8079 -1.5625 16.8079 -1.5625 16.8079 -1.5625C16.8079 -1.5625 16.8079 -1.5625 16.8079 -1.5625C16.8079 -1.5625 16.8079 -1.5625 16.8079 -1.5625C16.8079 -1.5625 16.8079 -1.5625 16.8079 -1.5625C16.8079 -1.5625 16.8079 -1.5625 16.8079 -1.5625C16.8079 -1.5625 16.8078 -1.5625 16.8078 -1.5625C16.8078 -1.5625 16.8078 -1.5625 16.8078 -1.5625C16.8078 -1.5625 16.8078 -1.5625 16.8078 -1.5625C16.8078 -1.5625 16.8078 -1.5625 16.8078 -1.5625C16.8078 -1.5625 16.8078 -1.5625 16.8078 -1.5625C16.8078 -1.5625 16.8078 -1.5625 16.8078 -1.5625C16.8078 -1.5625 16.8078 -1.5625 16.8078 -1.5625C16.8078 -1.5625 16.8078 -1.5625 16.8077 -1.5625C16.8077 -1.5625 16.8077 -1.5625 16.8077 -1.5625C16.8077 -1.5625 16.8077 -1.5625 16.8077 -1.5625C16.8077 -1.5625 16.8077 -1.5625 16.8077 -1.5625C16.8077 -1.5625 16.8077 -1.5625 16.8077 -1.5625C16.8077 -1.5625 16.8077 -1.5625 16.8077 -1.5625C16.8077 -1.5625 16.8077 -1.5625 16.8077 -1.5625C16.8077 -1.5625 16.8077 -1.5625 16.8076 -1.5625C16.8076 -1.5625 16.8076 -1.5625 16.8076 -1.5625C16.8076 -1.5625 16.8076 -1.5625 16.8076 -1.5625C16.8076 -1.5625 16.8076 -1.5625 16.8076 -1.5625C16.8076 -1.5625 16.8076 -1.5625 16.8076 -1.5625C16.8076 -1.5625 16.8076 -1.5625 16.8076 -1.5625C16.8076 -1.5625 16.8076 -1.5625 16.8076 -1.5625C16.8076 -1.5625 16.8076 -1.5625 16.8075 -1.5625C16.8075 -1.5625 16.8075 -1.5625 16.8075 -1.5625C16.8075 -1.5625 16.8075 -1.5625 16.8075 -1.5625C16.8075 -1.5625 16.8075 -1.5625 16.8075 -1.5625C16.8075 -1.5625 16.8075 -1.5625 16.8075 -1.5625C16.8075 -1.5625 16.8075 -1.5625 16.8075 -1.5625C16.8075 -1.5625 16.8075 -1.5625 16.8075 -1.5625C16.8075 -1.5625 16.8075 -1.5625 16.8075 -1.5625C16.8074 -1.5625 16.8074 -1.5625 16.8074 -1.5625C16.8074 -1.5625 16.8074 -1.5625 16.8074 -1.5625C16.8074 -1.5625 16.8074 -1.5625 16.8074 -1.5625C16.8074 -1.5625 16.8074 -1.5625 16.8074 -1.5625C16.8074 -1.5625 16.8074 -1.5625 16.8074 -1.5625C16.8074 -1.5625 16.8074 -1.5625 16.8074 -1.5625C16.8074 -1.5625 16.8074 -1.5625 16.8074 -1.5625C16.8073 -1.5625 16.8073 -1.5625 16.8073 -1.5625C16.8073 -1.5625 16.8073 -1.5625 16.8073 -1.5625C16.8073 -1.5625 16.8073 -1.5625 16.8073 -1.5625C16.8073 -1.5625 16.8073 -1.5625 16.8073 -1.5625C16.8073 -1.5625 16.8073 -1.5625 16.8073 -1.5625C16.8073 -1.5625 16.8073 -1.5625 16.8073 -1.5625C16.8073 -1.5625 16.8073 -1.5625 16.8073 -1.5625C16.8073 -1.5625 16.8072 -1.5625 16.8072 -1.5625C16.8072 -1.5625 16.8072 -1.5625 16.8072 -1.5625C16.8072 -1.5625 16.8072 -1.5625 16.8072 -1.5625C16.8072 -1.5625 16.8072 -1.5625 16.8072 -1.5625C16.8072 -1.5625 16.8072 -1.5625 16.8072 -1.5625C16.8072 -1.5625 16.8072 -1.5625 16.8072 -1.5625C16.8072 -1.5625 16.8072 -1.5625 16.8072 -1.5625C16.8072 -1.5625 16.8071 -1.5625 16.8071 -1.5625C16.8071 -1.5625 16.8071 -1.5625 16.8071 -1.5625C16.8071 -1.5625 16.8071 -1.5625 16.8071 -1.5625C16.8071 -1.5625 16.8071 -1.5625 16.8071 -1.5625C16.8071 -1.5625 16.8071 -1.5625 16.8071 -1.5625C16.8071 -1.5625 16.8071 -1.5625 16.8071 -1.5625C16.8071 -1.5625 16.8071 -1.5625 16.8071 -1.5625C16.8071 -1.5625 16.807 -1.5625 16.807 -1.5625C16.807 -1.5625 16.807 -1.5625 16.807 -1.5625C16.807 -1.5625 16.807 -1.5625 16.807 -1.5625C16.807 -1.5625 16.807 -1.5625 16.807 -1.5625C16.807 -1.5625 16.807 -1.5625 16.807 -1.5625C16.807 -1.5625 16.807 -1.5625 16.807 -1.5625C16.807 -1.5625 16.807 -1.5625 16.807 -1.5625C16.807 -1.5625 16.8069 -1.5625 16.8069 -1.5625C16.8069 -1.5625 16.8069 -1.5625 16.8069 -1.5625C16.8069 -1.5625 16.8069 -1.5625 16.8069 -1.5625C16.8069 -1.5625 16.8069 -1.5625 16.8069 -1.5625C16.8069 -1.5625 16.8069 -1.5625 16.8069 -1.5625C16.8069 -1.5625 16.8069 -1.5625 16.8069 -1.5625C16.8069 -1.5625 16.8069 -1.5625 16.8069 -1.5625C16.8069 -1.5625 16.8069 -1.5625 16.8068 -1.5625C16.8068 -1.5625 16.8068 -1.5625 16.8068 -1.5625C16.8068 -1.5625 16.8068 -1.5625 16.8068 -1.5625C16.8068 -1.5625 16.8068 -1.5625 16.8068 -1.5625C16.8068 -1.5625 16.8068 -1.5625 16.8068 -1.5625C16.8068 -1.5625 16.8068 -1.5625 16.8068 -1.5625C16.8068 -1.5625 16.8068 -1.5625 16.8068 -1.5625C16.8068 -1.5625 16.8068 -1.5625 16.8067 -1.5625C16.8067 -1.5625 16.8067 -1.5625 16.8067 -1.5625C16.8067 -1.5625 16.8067 -1.5625 16.8067 -1.5625C16.8067 -1.5625 16.8067 -1.5625 16.8067 -1.5625C16.8067 -1.5625 16.8067 -1.5625 16.8067 -1.5625C16.8067 -1.5625 16.8067 -1.5625 16.8067 -1.5625C16.8067 -1.5625 16.8067 -1.5625 16.8067 -1.5625C16.8067 -1.5625 16.8067 -1.5625 16.8066 -1.5625C16.8066 -1.5625 16.8066 -1.5625 16.8066 -1.5625C16.8066 -1.5625 16.8066 -1.5625 16.8066 -1.5625C16.8066 -1.5625 16.8066 -1.5625 16.8066 -1.5625C16.8066 -1.5625 16.8066 -1.5625 16.8066 -1.5625C16.8066 -1.5625 16.8066 -1.5625 16.8066 -1.5625C16.8066 -1.5625 16.8066 -1.5625 16.8066 -1.5625C16.8066 -1.5625 16.8066 -1.5625 16.8066 -1.5625C16.8065 -1.5625 16.8065 -1.5625 16.8065 -1.5625C16.8065 -1.5625 16.8065 -1.5625 16.8065 -1.5625C16.8065 -1.5625 16.8065 -1.5625 16.8065 -1.5625C16.8065 -1.5625 16.8065 -1.5625 16.8065 -1.5625C16.8065 -1.5625 16.8065 -1.5625 16.8065 -1.5625C16.8065 -1.5625 16.8065 -1.5625 16.8065 -1.5625C16.8065 -1.5625 16.8065 -1.5625 16.8065 -1.5625C16.8064 -1.5625 16.8064 -1.5625 16.8064 -1.5625C16.8064 -1.5625 16.8064 -1.5625 16.8064 -1.5625C16.8064 -1.5625 16.8064 -1.5625 16.8064 -1.5625C16.8064 -1.5625 16.8064 -1.5625 16.8064 -1.5625C16.8064 -1.5625 16.8064 -1.5625 16.8064 -1.5625C16.8064 -1.5625 16.8064 -1.5625 16.8064 -1.5625C16.8064 -1.5625 16.8064 -1.5625 16.8064 -1.5625C16.8063 -1.5625 16.8063 -1.5625 16.8063 -1.5625C16.8063 -1.5625 16.8063 -1.5625 16.8063 -1.5625C16.8063 -1.5625 16.8063 -1.5625 16.8063 -1.5625C16.8063 -1.5625 16.8063 -1.5625 16.8063 -1.5625C16.8063 -1.5625 16.8063 -1.5625 16.8063 -1.5625C16.8063 -1.5625 16.8063 -1.5625 16.8063 -1.5625C16.8063 -1.5625 16.8063 -1.5625 16.8063 -1.5625C16.8063 -1.5625 16.8062 -1.5625 16.8062 -1.5625C16.8062 -1.5625 16.8062 -1.5625 16.8062 -1.5625C16.8062 -1.5625 16.8062 -1.5625 16.8062 -1.5625C16.8062 -1.5625 16.8062 -1.5625 16.8062 -1.5625C16.8062 -1.5625 16.8062 -1.5625 16.8062 -1.5625C16.8062 -1.5625 16.8062 -1.5625 16.8062 -1.5625C16.8062 -1.5625 16.8062 -1.5625 16.8062 -1.5625C16.8062 -1.5625 16.8061 -1.5625 16.8061 -1.5625C16.8061 -1.5625 16.8061 -1.5625 16.8061 -1.5625C16.8061 -1.5625 16.8061 -1.5625 16.8061 -1.5625C16.8061 -1.5625 16.8061 -1.5625 16.8061 -1.5625C16.8061 -1.5625 16.8061 -1.5625 16.8061 -1.5625C16.8061 -1.5625 16.8061 -1.5625 16.8061 -1.5625C16.8061 -1.5625 16.8061 -1.5625 16.8061 -1.5625C16.8061 -1.5625 16.806 -1.5625 16.806 -1.5625C16.806 -1.5625 16.806 -1.5625 16.806 -1.5625C16.806 -1.5625 16.806 -1.5625 16.806 -1.5625C16.806 -1.5625 16.806 -1.5625 16.806 -1.5625C16.806 -1.5625 16.806 -1.5625 16.806 -1.5625C16.806 -1.5625 16.806 -1.5625 16.806 -1.5625C16.806 -1.5625 16.806 -1.5625 16.806 -1.5625C16.806 -1.5625 16.8059 -1.5625 16.8059 -1.5625C16.8059 -1.5625 16.8059 -1.5625 16.8059 -1.5625C16.8059 -1.5625 16.8059 -1.5625 16.8059 -1.5625C16.8059 -1.5625 16.8059 -1.5625 16.8059 -1.5625C16.8059 -1.5625 16.8059 -1.5625 16.8059 -1.5625C16.8059 -1.5625 16.8059 -1.5625 16.8059 -1.5625C16.8059 -1.5625 16.8059 -1.5625 16.8059 -1.5625C16.8059 -1.5625 16.8059 -1.5625 16.8058 -1.5625C16.8058 -1.5625 16.8058 -1.5625 16.8058 -1.5625C16.8058 -1.5625 16.8058 -1.5625 16.8058 -1.5625C16.8058 -1.5625 16.8058 -1.5625 16.8058 -1.5625C16.8058 -1.5625 16.8058 -1.5625 16.8058 -1.5625C16.8058 -1.5625 16.8058 -1.5625 16.8058 -1.5625C16.8058 -1.5625 16.8058 -1.5625 16.8058 -1.5625C16.8058 -1.5625 16.8058 -1.5625 16.8057 -1.5625C16.8057 -1.5625 16.8057 -1.5625 16.8057 -1.5625C16.8057 -1.5625 16.8057 -1.5625 16.8057 -1.5625C16.8057 -1.5625 16.8057 -1.5625 16.8057 -1.5625C16.8057 -1.5625 16.8057 -1.5625 16.8057 -1.5625C16.8057 -1.5625 16.8057 -1.5625 16.8057 -1.5625C16.8057 -1.5625 16.8057 -1.5625 16.8057 -1.5625C16.8057 -1.5625 16.8057 -1.5625 16.8056 -1.5625C16.8056 -1.5625 16.8056 -1.5625 16.8056 -1.5625C16.8056 -1.5625 16.8056 -1.5625 16.8056 -1.5625C16.8056 -1.5625 16.8056 -1.5625 16.8056 -1.5625C16.8056 -1.5625 16.8056 -1.5625 16.8056 -1.5625C16.8056 -1.5625 16.8056 -1.5625 16.8056 -1.5625C16.8056 -1.5625 16.8056 -1.5625 16.8056 -1.5625C16.8056 -1.5625 16.8056 -1.5625 16.8055 -1.5625C16.8055 -1.5625 16.8055 -1.5625 16.8055 -1.5625C16.8055 -1.5625 16.8055 -1.5625 16.8055 -1.5625C16.8055 -1.5625 16.8055 -1.5625 16.8055 -1.5625C16.8055 -1.5625 16.8055 -1.5625 16.8055 -1.5625C16.8055 -1.5625 16.8055 -1.5625 16.8055 -1.5625C16.8055 -1.5625 16.8055 -1.5625 16.8055 -1.5625C16.8055 -1.5625 16.8055 -1.5625 16.8055 -1.5625C16.8054 -1.5625 16.8054 -1.5625 16.8054 -1.5625C16.8054 -1.5625 16.8054 -1.5625 16.8054 -1.5625C16.8054 -1.5625 16.8054 -1.5625 16.8054 -1.5625C16.8054 -1.5625 16.8054 -1.5625 16.8054 -1.5625C16.8054 -1.5625 16.8054 -1.5625 16.8054 -1.5625C16.8054 -1.5625 16.8054 -1.5625 16.8054 -1.5625C16.8054 -1.5625 16.8054 -1.5625 16.8054 -1.5625C16.8053 -1.5625 16.8053 -1.5625 16.8053 -1.5625C16.8053 -1.5625 16.8053 -1.5625 16.8053 -1.5625C16.8053 -1.5625 16.8053 -1.5625 16.8053 -1.5625C16.8053 -1.5625 16.8053 -1.5625 16.8053 -1.5625C16.8053 -1.5625 16.8053 -1.5625 16.8053 -1.5625C16.8053 -1.5625 16.8053 -1.5625 16.8053 -1.5625C16.8053 -1.5625 16.8053 -1.5625 16.8053 -1.5625C16.8052 -1.5625 16.8052 -1.5625 16.8052 -1.5625C16.8052 -1.5625 16.8052 -1.5625 16.8052 -1.5625C16.8052 -1.5625 16.8052 -1.5625 16.8052 -1.5625C16.8052 -1.5625 16.8052 -1.5625 16.8052 -1.5625C16.8052 -1.5625 16.8052 -1.5625 16.8052 -1.5625C16.8052 -1.5625 16.8052 -1.5625 16.8052 -1.5625C16.8052 -1.5625 16.8052 -1.5625 16.8052 -1.5625C16.8051 -1.5625 16.8051 -1.5625 16.8051 -1.5625C16.8051 -1.5625 16.8051 -1.5625 16.8051 -1.5625C16.8051 -1.5625 16.8051 -1.5625 16.8051 -1.5625C16.8051 -1.5625 16.8051 -1.5625 16.8051 -1.5625C16.8051 -1.5625 16.8051 -1.5625 16.8051 -1.5625C16.8051 -1.5625 16.8051 -1.5625 16.8051 -1.5625C16.8051 -1.5625 16.8051 -1.5625 16.8051 -1.5625C16.805 -1.5625 16.805 -1.5625 16.805 -1.5625C16.805 -1.5625 16.805 -1.5625 16.805 -1.5625C16.805 -1.5625 16.805 -1.5625 16.805 -1.5625C16.805 -1.5625 16.805 -1.5625 16.805 -1.5625C16.805 -1.5625 16.805 -1.5625 16.805 -1.5625C16.805 -1.5625 16.805 -1.5625 16.805 -1.5625C16.805 -1.5625 16.805 -1.5625 16.805 -1.5625C16.805 -1.5625 16.8049 -1.5625 16.8049 -1.5625C16.8049 -1.5625 16.8049 -1.5625 16.8049 -1.5625C16.8049 -1.5625 16.8049 -1.5625 16.8049 -1.5625C16.8049 -1.5625 16.8049 -1.5625 16.8049 -1.5625C16.8049 -1.5625 16.8049 -1.5625 16.8049 -1.5625C16.8049 -1.5625 16.8049 -1.5625 16.8049 -1.5625C16.8049 -1.5625 16.8049 -1.5625 16.8049 -1.5625C16.8049 -1.5625 16.8048 -1.5625 16.8048 -1.5625C16.8048 -1.5625 16.8048 -1.5625 16.8048 -1.5625C16.8048 -1.5625 16.8048 -1.5625 16.8048 -1.5625C16.8048 -1.5625 16.8048 -1.5625 16.8048 -1.5625C16.8048 -1.5625 16.8048 -1.5625 16.8048 -1.5625C16.8048 -1.5625 16.8048 -1.5625 16.8048 -1.5625C16.8048 -1.5625 16.8048 -1.5625 16.8048 -1.5625C16.8048 -1.5625 16.8047 -1.5625 16.8047 -1.5625C16.8047 -1.5625 16.8047 -1.5625 16.8047 -1.5625C16.8047 -1.5625 16.8047 -1.5625 16.8047 -1.5625C16.8047 -1.5625 16.8047 -1.5625 16.8047 -1.5625C16.8047 -1.5625 16.8047 -1.5625 16.8047 -1.5625C16.8047 -1.5625 16.8047 -1.5625 16.8047 -1.5625C16.8047 -1.5625 16.8047 -1.5625 16.8047 -1.5625C16.8047 -1.5625 16.8046 -1.5625 16.8046 -1.5625C16.8046 -1.5625 16.8046 -1.5625 16.8046 -1.5625C16.8046 -1.5625 16.8046 -1.5625 16.8046 -1.5625C16.8046 -1.5625 16.8046 -1.5625 16.8046 -1.5625C16.8046 -1.5625 16.8046 -1.5625 16.8046 -1.5625C16.8046 -1.5625 16.8046 -1.5625 16.8046 -1.5625C16.8046 -1.5625 16.8046 -1.5625 16.8046 -1.5625C16.8046 -1.5625 16.8045 -1.5625 16.8045 -1.5625C16.8045 -1.5625 16.8045 -1.5625 16.8045 -1.5625C16.8045 -1.5625 16.8045 -1.5625 16.8045 -1.5625C16.8045 -1.5625 16.8045 -1.5625 16.8045 -1.5625C16.8045 -1.5625 16.8045 -1.5625 16.8045 -1.5625C16.8045 -1.5625 16.8045 -1.5625 16.8045 -1.5625C16.8045 -1.5625 16.8045 -1.5625 16.8045 -1.5625C16.8045 -1.5625 16.8045 -1.5625 16.8044 -1.5625C16.8044 -1.5625 16.8044 -1.5625 16.8044 -1.5625C16.8044 -1.5625 16.8044 -1.5625 16.8044 -1.5625C16.8044 -1.5625 16.8044 -1.5625 16.8044 -1.5625C16.8044 -1.5625 16.8044 -1.5625 16.8044 -1.5625C16.8044 -1.5625 16.8044 -1.5625 16.8044 -1.5625C16.8044 -1.5625 16.8044 -1.5625 16.8044 -1.5625C16.8044 -1.5625 16.8044 -1.5625 16.8043 -1.5625C16.8043 -1.5625 16.8043 -1.5625 16.8043 -1.5625C16.8043 -1.5625 16.8043 -1.5625 16.8043 -1.5625C16.8043 -1.5625 16.8043 -1.5625 16.8043 -1.5625C16.8043 -1.5625 16.8043 -1.5625 16.8043 -1.5625C16.8043 -1.5625 16.8043 -1.5625 16.8043 -1.5625C16.8043 -1.5625 16.8043 -1.5625 16.8043 -1.5625C16.8043 -1.5625 16.8043 -1.5625 16.8042 -1.5625C16.8042 -1.5625 16.8042 -1.5625 16.8042 -1.5625C16.8042 -1.5625 16.8042 -1.5625 16.8042 -1.5625C16.8042 -1.5625 16.8042 -1.5625 16.8042 -1.5625C16.8042 -1.5625 16.8042 -1.5625 16.8042 -1.5625C16.8042 -1.5625 16.8042 -1.5625 16.8042 -1.5625C16.8042 -1.5625 16.8042 -1.5625 16.8042 -1.5625C16.8042 -1.5625 16.8042 -1.5625 16.8041 -1.5625C16.8041 -1.5625 16.8041 -1.5625 16.8041 -1.5625C16.8041 -1.5625 16.8041 -1.5625 16.8041 -1.5625C16.8041 -1.5625 16.8041 -1.5625 16.8041 -1.5625C16.8041 -1.5625 16.8041 -1.5625 16.8041 -1.5625C16.8041 -1.5625 16.8041 -1.5625 16.8041 -1.5625C16.8041 -1.5625 16.8041 -1.5625 16.8041 -1.5625C16.8041 -1.5625 16.8041 -1.5625 16.804 -1.5625C16.804 -1.5625 16.804 -1.5625 16.804 -1.5625C16.804 -1.5625 16.804 -1.5625 16.804 -1.5625C16.804 -1.5625 16.804 -1.5625 16.804 -1.5625C16.804 -1.5625 16.804 -1.5625 16.804 -1.5625C16.804 -1.5625 16.804 -1.5625 16.804 -1.5625C16.804 -1.5625 16.804 -1.5625 16.804 -1.5625C16.804 -1.5625 16.804 -1.5625 16.8039 -1.5625C16.8039 -1.5625 16.8039 -1.5625 16.8039 -1.5625C16.8039 -1.5625 16.8039 -1.5625 16.8039 -1.5625C16.8039 -1.5625 16.8039 -1.5625 16.8039 -1.5625C16.8039 -1.5625 16.8039 -1.5625 16.8039 -1.5625C16.8039 -1.5625 16.8039 -1.5625 16.8039 -1.5625C16.8039 -1.5625 16.8039 -1.5625 16.8039 -1.5625C16.8039 -1.5625 16.8039 -1.5625 16.8038 -1.5625C16.8038 -1.5625 16.8038 -1.5625 16.8038 -1.5625C16.8038 -1.5625 16.8038 -1.5625 16.8038 -1.5625C16.8038 -1.5625 16.8038 -1.5625 16.8038 -1.5625C16.8038 -1.5625 16.8038 -1.5625 16.8038 -1.5625C16.8038 -1.5625 16.8038 -1.5625 16.8038 -1.5625C16.8038 -1.5625 16.8038 -1.5625 16.8038 -1.5625C16.8038 -1.5625 16.8038 -1.5625 16.8037 -1.5625C16.8037 -1.5625 16.8037 -1.5625 16.8037 -1.5625C16.8037 -1.5625 16.8037 -1.5625 16.8037 -1.5625C16.8037 -1.5625 16.8037 -1.5625 16.8037 -1.5625C16.8037 -1.5625 16.8037 -1.5625 16.8037 -1.5625C16.8037 -1.5625 16.8037 -1.5625 16.8037 -1.5625C16.8037 -1.5625 16.8037 -1.5625 16.8037 -1.5625C16.8037 -1.5625 16.8037 -1.5625 16.8036 -1.5625C16.8036 -1.5625 16.8036 -1.5625 16.8036 -1.5625C16.8036 -1.5625 16.8036 -1.5625 16.8036 -1.5625C16.8036 -1.5625 16.8036 -1.5625 16.8036 -1.5625C16.8036 -1.5625 16.8036 -1.5625 16.8036 -1.5625C16.8036 -1.5625 16.8036 -1.5625 16.8036 -1.5625C16.8036 -1.5625 16.8036 -1.5625 16.8036 -1.5625C16.8036 -1.5625 16.8036 -1.5625 16.8035 -1.5625C16.8035 -1.5625 16.8035 -1.5625 16.8035 -1.5625C16.8035 -1.5625 16.8035 -1.5625 16.8035 -1.5625C16.8035 -1.5625 16.8035 -1.5625 16.8035 -1.5625C16.8035 -1.5625 16.8035 -1.5625 16.8035 -1.5625C16.8035 -1.5625 16.8035 -1.5625 16.8035 -1.5625C16.8035 -1.5625 16.8035 -1.5625 16.8035 -1.5625C16.8035 -1.5625 16.8035 -1.5625 16.8034 -1.5625C16.8034 -1.5625 16.8034 -1.5625 16.8034 -1.5625C16.8034 -1.5625 16.8034 -1.5625 16.8034 -1.5625C16.8034 -1.5625 16.8034 -1.5625 16.8034 -1.5625C16.8034 -1.5625 16.8034 -1.5625 16.8034 -1.5625C16.8034 -1.5625 16.8034 -1.5625 16.8034 -1.5625C16.8034 -1.5625 16.8034 -1.5625 16.8034 -1.5625C16.8034 -1.5625 16.8034 -1.5625 16.8033 -1.5625C16.8033 -1.5625 16.8033 -1.5625 16.8033 -1.5625C16.8033 -1.5625 16.8033 -1.5625 16.8033 -1.5625C16.8033 -1.5625 16.8033 -1.5625 16.8033 -1.5625C16.8033 -1.5625 16.8033 -1.5625 16.8033 -1.5625C16.8033 -1.5625 16.8033 -1.5625 16.8033 -1.5625C16.8033 -1.5625 16.8033 -1.5625 16.8033 -1.5625C16.8033 -1.5625 16.8033 -1.5625 16.8032 -1.5625C16.8032 -1.5625 16.8032 -1.5625 16.8032 -1.5625C16.8032 -1.5625 16.8032 -1.5625 16.8032 -1.5625C16.8032 -1.5625 16.8032 -1.5625 16.8032 -1.5625C16.8032 -1.5625 16.8032 -1.5625 16.8032 -1.5625C16.8032 -1.5625 16.8032 -1.5625 16.8032 -1.5625C16.8032 -1.5625 16.8032 -1.5625 16.8032 -1.5625C16.8032 -1.5625 16.8032 -1.5625 16.8032 -1.5625C16.8031 -1.5625 16.8031 -1.5625 16.8031 -1.5625C16.8031 -1.5625 16.8031 -1.5625 16.8031 -1.5625C16.8031 -1.5625 16.8031 -1.5625 16.8031 -1.5625C16.8031 -1.5625 16.8031 -1.5625 16.8031 -1.5625C16.8031 -1.5625 16.8031 -1.5625 16.8031 -1.5625V1.5625C16.8031 1.5625 16.8031 1.5625 16.8031 1.5625C16.8031 1.5625 16.8031 1.5625 16.8031 1.5625C16.8031 1.5625 16.8031 1.5625 16.8031 1.5625C16.8031 1.5625 16.8031 1.5625 16.8031 1.5625C16.8031 1.5625 16.8031 1.5625 16.8032 1.5625C16.8032 1.5625 16.8032 1.5625 16.8032 1.5625C16.8032 1.5625 16.8032 1.5625 16.8032 1.5625C16.8032 1.5625 16.8032 1.5625 16.8032 1.5625C16.8032 1.5625 16.8032 1.5625 16.8032 1.5625C16.8032 1.5625 16.8032 1.5625 16.8032 1.5625C16.8032 1.5625 16.8032 1.5625 16.8032 1.5625C16.8032 1.5625 16.8032 1.5625 16.8032 1.5625C16.8033 1.5625 16.8033 1.5625 16.8033 1.5625C16.8033 1.5625 16.8033 1.5625 16.8033 1.5625C16.8033 1.5625 16.8033 1.5625 16.8033 1.5625C16.8033 1.5625 16.8033 1.5625 16.8033 1.5625C16.8033 1.5625 16.8033 1.5625 16.8033 1.5625C16.8033 1.5625 16.8033 1.5625 16.8033 1.5625C16.8033 1.5625 16.8033 1.5625 16.8033 1.5625C16.8034 1.5625 16.8034 1.5625 16.8034 1.5625C16.8034 1.5625 16.8034 1.5625 16.8034 1.5625C16.8034 1.5625 16.8034 1.5625 16.8034 1.5625C16.8034 1.5625 16.8034 1.5625 16.8034 1.5625C16.8034 1.5625 16.8034 1.5625 16.8034 1.5625C16.8034 1.5625 16.8034 1.5625 16.8034 1.5625C16.8034 1.5625 16.8034 1.5625 16.8034 1.5625C16.8035 1.5625 16.8035 1.5625 16.8035 1.5625C16.8035 1.5625 16.8035 1.5625 16.8035 1.5625C16.8035 1.5625 16.8035 1.5625 16.8035 1.5625C16.8035 1.5625 16.8035 1.5625 16.8035 1.5625C16.8035 1.5625 16.8035 1.5625 16.8035 1.5625C16.8035 1.5625 16.8035 1.5625 16.8035 1.5625C16.8035 1.5625 16.8035 1.5625 16.8035 1.5625C16.8036 1.5625 16.8036 1.5625 16.8036 1.5625C16.8036 1.5625 16.8036 1.5625 16.8036 1.5625C16.8036 1.5625 16.8036 1.5625 16.8036 1.5625C16.8036 1.5625 16.8036 1.5625 16.8036 1.5625C16.8036 1.5625 16.8036 1.5625 16.8036 1.5625C16.8036 1.5625 16.8036 1.5625 16.8036 1.5625C16.8036 1.5625 16.8036 1.5625 16.8036 1.5625C16.8037 1.5625 16.8037 1.5625 16.8037 1.5625C16.8037 1.5625 16.8037 1.5625 16.8037 1.5625C16.8037 1.5625 16.8037 1.5625 16.8037 1.5625C16.8037 1.5625 16.8037 1.5625 16.8037 1.5625C16.8037 1.5625 16.8037 1.5625 16.8037 1.5625C16.8037 1.5625 16.8037 1.5625 16.8037 1.5625C16.8037 1.5625 16.8037 1.5625 16.8037 1.5625C16.8038 1.5625 16.8038 1.5625 16.8038 1.5625C16.8038 1.5625 16.8038 1.5625 16.8038 1.5625C16.8038 1.5625 16.8038 1.5625 16.8038 1.5625C16.8038 1.5625 16.8038 1.5625 16.8038 1.5625C16.8038 1.5625 16.8038 1.5625 16.8038 1.5625C16.8038 1.5625 16.8038 1.5625 16.8038 1.5625C16.8038 1.5625 16.8038 1.5625 16.8038 1.5625C16.8039 1.5625 16.8039 1.5625 16.8039 1.5625C16.8039 1.5625 16.8039 1.5625 16.8039 1.5625C16.8039 1.5625 16.8039 1.5625 16.8039 1.5625C16.8039 1.5625 16.8039 1.5625 16.8039 1.5625C16.8039 1.5625 16.8039 1.5625 16.8039 1.5625C16.8039 1.5625 16.8039 1.5625 16.8039 1.5625C16.8039 1.5625 16.8039 1.5625 16.8039 1.5625C16.804 1.5625 16.804 1.5625 16.804 1.5625C16.804 1.5625 16.804 1.5625 16.804 1.5625C16.804 1.5625 16.804 1.5625 16.804 1.5625C16.804 1.5625 16.804 1.5625 16.804 1.5625C16.804 1.5625 16.804 1.5625 16.804 1.5625C16.804 1.5625 16.804 1.5625 16.804 1.5625C16.804 1.5625 16.804 1.5625 16.804 1.5625C16.8041 1.5625 16.8041 1.5625 16.8041 1.5625C16.8041 1.5625 16.8041 1.5625 16.8041 1.5625C16.8041 1.5625 16.8041 1.5625 16.8041 1.5625C16.8041 1.5625 16.8041 1.5625 16.8041 1.5625C16.8041 1.5625 16.8041 1.5625 16.8041 1.5625C16.8041 1.5625 16.8041 1.5625 16.8041 1.5625C16.8041 1.5625 16.8041 1.5625 16.8041 1.5625C16.8042 1.5625 16.8042 1.5625 16.8042 1.5625C16.8042 1.5625 16.8042 1.5625 16.8042 1.5625C16.8042 1.5625 16.8042 1.5625 16.8042 1.5625C16.8042 1.5625 16.8042 1.5625 16.8042 1.5625C16.8042 1.5625 16.8042 1.5625 16.8042 1.5625C16.8042 1.5625 16.8042 1.5625 16.8042 1.5625C16.8042 1.5625 16.8042 1.5625 16.8042 1.5625C16.8043 1.5625 16.8043 1.5625 16.8043 1.5625C16.8043 1.5625 16.8043 1.5625 16.8043 1.5625C16.8043 1.5625 16.8043 1.5625 16.8043 1.5625C16.8043 1.5625 16.8043 1.5625 16.8043 1.5625C16.8043 1.5625 16.8043 1.5625 16.8043 1.5625C16.8043 1.5625 16.8043 1.5625 16.8043 1.5625C16.8043 1.5625 16.8043 1.5625 16.8043 1.5625C16.8044 1.5625 16.8044 1.5625 16.8044 1.5625C16.8044 1.5625 16.8044 1.5625 16.8044 1.5625C16.8044 1.5625 16.8044 1.5625 16.8044 1.5625C16.8044 1.5625 16.8044 1.5625 16.8044 1.5625C16.8044 1.5625 16.8044 1.5625 16.8044 1.5625C16.8044 1.5625 16.8044 1.5625 16.8044 1.5625C16.8044 1.5625 16.8044 1.5625 16.8044 1.5625C16.8045 1.5625 16.8045 1.5625 16.8045 1.5625C16.8045 1.5625 16.8045 1.5625 16.8045 1.5625C16.8045 1.5625 16.8045 1.5625 16.8045 1.5625C16.8045 1.5625 16.8045 1.5625 16.8045 1.5625C16.8045 1.5625 16.8045 1.5625 16.8045 1.5625C16.8045 1.5625 16.8045 1.5625 16.8045 1.5625C16.8045 1.5625 16.8045 1.5625 16.8045 1.5625C16.8045 1.5625 16.8046 1.5625 16.8046 1.5625C16.8046 1.5625 16.8046 1.5625 16.8046 1.5625C16.8046 1.5625 16.8046 1.5625 16.8046 1.5625C16.8046 1.5625 16.8046 1.5625 16.8046 1.5625C16.8046 1.5625 16.8046 1.5625 16.8046 1.5625C16.8046 1.5625 16.8046 1.5625 16.8046 1.5625C16.8046 1.5625 16.8046 1.5625 16.8046 1.5625C16.8046 1.5625 16.8047 1.5625 16.8047 1.5625C16.8047 1.5625 16.8047 1.5625 16.8047 1.5625C16.8047 1.5625 16.8047 1.5625 16.8047 1.5625C16.8047 1.5625 16.8047 1.5625 16.8047 1.5625C16.8047 1.5625 16.8047 1.5625 16.8047 1.5625C16.8047 1.5625 16.8047 1.5625 16.8047 1.5625C16.8047 1.5625 16.8047 1.5625 16.8047 1.5625C16.8047 1.5625 16.8048 1.5625 16.8048 1.5625C16.8048 1.5625 16.8048 1.5625 16.8048 1.5625C16.8048 1.5625 16.8048 1.5625 16.8048 1.5625C16.8048 1.5625 16.8048 1.5625 16.8048 1.5625C16.8048 1.5625 16.8048 1.5625 16.8048 1.5625C16.8048 1.5625 16.8048 1.5625 16.8048 1.5625C16.8048 1.5625 16.8048 1.5625 16.8048 1.5625C16.8048 1.5625 16.8049 1.5625 16.8049 1.5625C16.8049 1.5625 16.8049 1.5625 16.8049 1.5625C16.8049 1.5625 16.8049 1.5625 16.8049 1.5625C16.8049 1.5625 16.8049 1.5625 16.8049 1.5625C16.8049 1.5625 16.8049 1.5625 16.8049 1.5625C16.8049 1.5625 16.8049 1.5625 16.8049 1.5625C16.8049 1.5625 16.8049 1.5625 16.8049 1.5625C16.8049 1.5625 16.805 1.5625 16.805 1.5625C16.805 1.5625 16.805 1.5625 16.805 1.5625C16.805 1.5625 16.805 1.5625 16.805 1.5625C16.805 1.5625 16.805 1.5625 16.805 1.5625C16.805 1.5625 16.805 1.5625 16.805 1.5625C16.805 1.5625 16.805 1.5625 16.805 1.5625C16.805 1.5625 16.805 1.5625 16.805 1.5625C16.805 1.5625 16.805 1.5625 16.8051 1.5625C16.8051 1.5625 16.8051 1.5625 16.8051 1.5625C16.8051 1.5625 16.8051 1.5625 16.8051 1.5625C16.8051 1.5625 16.8051 1.5625 16.8051 1.5625C16.8051 1.5625 16.8051 1.5625 16.8051 1.5625C16.8051 1.5625 16.8051 1.5625 16.8051 1.5625C16.8051 1.5625 16.8051 1.5625 16.8051 1.5625C16.8051 1.5625 16.8051 1.5625 16.8052 1.5625C16.8052 1.5625 16.8052 1.5625 16.8052 1.5625C16.8052 1.5625 16.8052 1.5625 16.8052 1.5625C16.8052 1.5625 16.8052 1.5625 16.8052 1.5625C16.8052 1.5625 16.8052 1.5625 16.8052 1.5625C16.8052 1.5625 16.8052 1.5625 16.8052 1.5625C16.8052 1.5625 16.8052 1.5625 16.8052 1.5625C16.8052 1.5625 16.8052 1.5625 16.8053 1.5625C16.8053 1.5625 16.8053 1.5625 16.8053 1.5625C16.8053 1.5625 16.8053 1.5625 16.8053 1.5625C16.8053 1.5625 16.8053 1.5625 16.8053 1.5625C16.8053 1.5625 16.8053 1.5625 16.8053 1.5625C16.8053 1.5625 16.8053 1.5625 16.8053 1.5625C16.8053 1.5625 16.8053 1.5625 16.8053 1.5625C16.8053 1.5625 16.8053 1.5625 16.8054 1.5625C16.8054 1.5625 16.8054 1.5625 16.8054 1.5625C16.8054 1.5625 16.8054 1.5625 16.8054 1.5625C16.8054 1.5625 16.8054 1.5625 16.8054 1.5625C16.8054 1.5625 16.8054 1.5625 16.8054 1.5625C16.8054 1.5625 16.8054 1.5625 16.8054 1.5625C16.8054 1.5625 16.8054 1.5625 16.8054 1.5625C16.8054 1.5625 16.8054 1.5625 16.8055 1.5625C16.8055 1.5625 16.8055 1.5625 16.8055 1.5625C16.8055 1.5625 16.8055 1.5625 16.8055 1.5625C16.8055 1.5625 16.8055 1.5625 16.8055 1.5625C16.8055 1.5625 16.8055 1.5625 16.8055 1.5625C16.8055 1.5625 16.8055 1.5625 16.8055 1.5625C16.8055 1.5625 16.8055 1.5625 16.8055 1.5625C16.8055 1.5625 16.8055 1.5625 16.8055 1.5625C16.8056 1.5625 16.8056 1.5625 16.8056 1.5625C16.8056 1.5625 16.8056 1.5625 16.8056 1.5625C16.8056 1.5625 16.8056 1.5625 16.8056 1.5625C16.8056 1.5625 16.8056 1.5625 16.8056 1.5625C16.8056 1.5625 16.8056 1.5625 16.8056 1.5625C16.8056 1.5625 16.8056 1.5625 16.8056 1.5625C16.8056 1.5625 16.8056 1.5625 16.8056 1.5625C16.8057 1.5625 16.8057 1.5625 16.8057 1.5625C16.8057 1.5625 16.8057 1.5625 16.8057 1.5625C16.8057 1.5625 16.8057 1.5625 16.8057 1.5625C16.8057 1.5625 16.8057 1.5625 16.8057 1.5625C16.8057 1.5625 16.8057 1.5625 16.8057 1.5625C16.8057 1.5625 16.8057 1.5625 16.8057 1.5625C16.8057 1.5625 16.8057 1.5625 16.8057 1.5625C16.8058 1.5625 16.8058 1.5625 16.8058 1.5625C16.8058 1.5625 16.8058 1.5625 16.8058 1.5625C16.8058 1.5625 16.8058 1.5625 16.8058 1.5625C16.8058 1.5625 16.8058 1.5625 16.8058 1.5625C16.8058 1.5625 16.8058 1.5625 16.8058 1.5625C16.8058 1.5625 16.8058 1.5625 16.8058 1.5625C16.8058 1.5625 16.8058 1.5625 16.8058 1.5625C16.8059 1.5625 16.8059 1.5625 16.8059 1.5625C16.8059 1.5625 16.8059 1.5625 16.8059 1.5625C16.8059 1.5625 16.8059 1.5625 16.8059 1.5625C16.8059 1.5625 16.8059 1.5625 16.8059 1.5625C16.8059 1.5625 16.8059 1.5625 16.8059 1.5625C16.8059 1.5625 16.8059 1.5625 16.8059 1.5625C16.8059 1.5625 16.8059 1.5625 16.8059 1.5625C16.8059 1.5625 16.806 1.5625 16.806 1.5625C16.806 1.5625 16.806 1.5625 16.806 1.5625C16.806 1.5625 16.806 1.5625 16.806 1.5625C16.806 1.5625 16.806 1.5625 16.806 1.5625C16.806 1.5625 16.806 1.5625 16.806 1.5625C16.806 1.5625 16.806 1.5625 16.806 1.5625C16.806 1.5625 16.806 1.5625 16.806 1.5625C16.806 1.5625 16.8061 1.5625 16.8061 1.5625C16.8061 1.5625 16.8061 1.5625 16.8061 1.5625C16.8061 1.5625 16.8061 1.5625 16.8061 1.5625C16.8061 1.5625 16.8061 1.5625 16.8061 1.5625C16.8061 1.5625 16.8061 1.5625 16.8061 1.5625C16.8061 1.5625 16.8061 1.5625 16.8061 1.5625C16.8061 1.5625 16.8061 1.5625 16.8061 1.5625C16.8061 1.5625 16.8062 1.5625 16.8062 1.5625C16.8062 1.5625 16.8062 1.5625 16.8062 1.5625C16.8062 1.5625 16.8062 1.5625 16.8062 1.5625C16.8062 1.5625 16.8062 1.5625 16.8062 1.5625C16.8062 1.5625 16.8062 1.5625 16.8062 1.5625C16.8062 1.5625 16.8062 1.5625 16.8062 1.5625C16.8062 1.5625 16.8062 1.5625 16.8062 1.5625C16.8062 1.5625 16.8063 1.5625 16.8063 1.5625C16.8063 1.5625 16.8063 1.5625 16.8063 1.5625C16.8063 1.5625 16.8063 1.5625 16.8063 1.5625C16.8063 1.5625 16.8063 1.5625 16.8063 1.5625C16.8063 1.5625 16.8063 1.5625 16.8063 1.5625C16.8063 1.5625 16.8063 1.5625 16.8063 1.5625C16.8063 1.5625 16.8063 1.5625 16.8063 1.5625C16.8063 1.5625 16.8063 1.5625 16.8064 1.5625C16.8064 1.5625 16.8064 1.5625 16.8064 1.5625C16.8064 1.5625 16.8064 1.5625 16.8064 1.5625C16.8064 1.5625 16.8064 1.5625 16.8064 1.5625C16.8064 1.5625 16.8064 1.5625 16.8064 1.5625C16.8064 1.5625 16.8064 1.5625 16.8064 1.5625C16.8064 1.5625 16.8064 1.5625 16.8064 1.5625C16.8064 1.5625 16.8064 1.5625 16.8065 1.5625C16.8065 1.5625 16.8065 1.5625 16.8065 1.5625C16.8065 1.5625 16.8065 1.5625 16.8065 1.5625C16.8065 1.5625 16.8065 1.5625 16.8065 1.5625C16.8065 1.5625 16.8065 1.5625 16.8065 1.5625C16.8065 1.5625 16.8065 1.5625 16.8065 1.5625C16.8065 1.5625 16.8065 1.5625 16.8065 1.5625C16.8065 1.5625 16.8065 1.5625 16.8066 1.5625C16.8066 1.5625 16.8066 1.5625 16.8066 1.5625C16.8066 1.5625 16.8066 1.5625 16.8066 1.5625C16.8066 1.5625 16.8066 1.5625 16.8066 1.5625C16.8066 1.5625 16.8066 1.5625 16.8066 1.5625C16.8066 1.5625 16.8066 1.5625 16.8066 1.5625C16.8066 1.5625 16.8066 1.5625 16.8066 1.5625C16.8066 1.5625 16.8066 1.5625 16.8066 1.5625C16.8067 1.5625 16.8067 1.5625 16.8067 1.5625C16.8067 1.5625 16.8067 1.5625 16.8067 1.5625C16.8067 1.5625 16.8067 1.5625 16.8067 1.5625C16.8067 1.5625 16.8067 1.5625 16.8067 1.5625C16.8067 1.5625 16.8067 1.5625 16.8067 1.5625C16.8067 1.5625 16.8067 1.5625 16.8067 1.5625C16.8067 1.5625 16.8067 1.5625 16.8067 1.5625C16.8068 1.5625 16.8068 1.5625 16.8068 1.5625C16.8068 1.5625 16.8068 1.5625 16.8068 1.5625C16.8068 1.5625 16.8068 1.5625 16.8068 1.5625C16.8068 1.5625 16.8068 1.5625 16.8068 1.5625C16.8068 1.5625 16.8068 1.5625 16.8068 1.5625C16.8068 1.5625 16.8068 1.5625 16.8068 1.5625C16.8068 1.5625 16.8068 1.5625 16.8068 1.5625C16.8069 1.5625 16.8069 1.5625 16.8069 1.5625C16.8069 1.5625 16.8069 1.5625 16.8069 1.5625C16.8069 1.5625 16.8069 1.5625 16.8069 1.5625C16.8069 1.5625 16.8069 1.5625 16.8069 1.5625C16.8069 1.5625 16.8069 1.5625 16.8069 1.5625C16.8069 1.5625 16.8069 1.5625 16.8069 1.5625C16.8069 1.5625 16.8069 1.5625 16.8069 1.5625C16.8069 1.5625 16.807 1.5625 16.807 1.5625C16.807 1.5625 16.807 1.5625 16.807 1.5625C16.807 1.5625 16.807 1.5625 16.807 1.5625C16.807 1.5625 16.807 1.5625 16.807 1.5625C16.807 1.5625 16.807 1.5625 16.807 1.5625C16.807 1.5625 16.807 1.5625 16.807 1.5625C16.807 1.5625 16.807 1.5625 16.807 1.5625C16.807 1.5625 16.8071 1.5625 16.8071 1.5625C16.8071 1.5625 16.8071 1.5625 16.8071 1.5625C16.8071 1.5625 16.8071 1.5625 16.8071 1.5625C16.8071 1.5625 16.8071 1.5625 16.8071 1.5625C16.8071 1.5625 16.8071 1.5625 16.8071 1.5625C16.8071 1.5625 16.8071 1.5625 16.8071 1.5625C16.8071 1.5625 16.8071 1.5625 16.8071 1.5625C16.8071 1.5625 16.8072 1.5625 16.8072 1.5625C16.8072 1.5625 16.8072 1.5625 16.8072 1.5625C16.8072 1.5625 16.8072 1.5625 16.8072 1.5625C16.8072 1.5625 16.8072 1.5625 16.8072 1.5625C16.8072 1.5625 16.8072 1.5625 16.8072 1.5625C16.8072 1.5625 16.8072 1.5625 16.8072 1.5625C16.8072 1.5625 16.8072 1.5625 16.8072 1.5625C16.8072 1.5625 16.8073 1.5625 16.8073 1.5625C16.8073 1.5625 16.8073 1.5625 16.8073 1.5625C16.8073 1.5625 16.8073 1.5625 16.8073 1.5625C16.8073 1.5625 16.8073 1.5625 16.8073 1.5625C16.8073 1.5625 16.8073 1.5625 16.8073 1.5625C16.8073 1.5625 16.8073 1.5625 16.8073 1.5625C16.8073 1.5625 16.8073 1.5625 16.8073 1.5625C16.8073 1.5625 16.8073 1.5625 16.8074 1.5625C16.8074 1.5625 16.8074 1.5625 16.8074 1.5625C16.8074 1.5625 16.8074 1.5625 16.8074 1.5625C16.8074 1.5625 16.8074 1.5625 16.8074 1.5625C16.8074 1.5625 16.8074 1.5625 16.8074 1.5625C16.8074 1.5625 16.8074 1.5625 16.8074 1.5625C16.8074 1.5625 16.8074 1.5625 16.8074 1.5625C16.8074 1.5625 16.8074 1.5625 16.8075 1.5625C16.8075 1.5625 16.8075 1.5625 16.8075 1.5625C16.8075 1.5625 16.8075 1.5625 16.8075 1.5625C16.8075 1.5625 16.8075 1.5625 16.8075 1.5625C16.8075 1.5625 16.8075 1.5625 16.8075 1.5625C16.8075 1.5625 16.8075 1.5625 16.8075 1.5625C16.8075 1.5625 16.8075 1.5625 16.8075 1.5625C16.8075 1.5625 16.8075 1.5625 16.8075 1.5625C16.8076 1.5625 16.8076 1.5625 16.8076 1.5625C16.8076 1.5625 16.8076 1.5625 16.8076 1.5625C16.8076 1.5625 16.8076 1.5625 16.8076 1.5625C16.8076 1.5625 16.8076 1.5625 16.8076 1.5625C16.8076 1.5625 16.8076 1.5625 16.8076 1.5625C16.8076 1.5625 16.8076 1.5625 16.8076 1.5625C16.8076 1.5625 16.8076 1.5625 16.8076 1.5625C16.8077 1.5625 16.8077 1.5625 16.8077 1.5625C16.8077 1.5625 16.8077 1.5625 16.8077 1.5625C16.8077 1.5625 16.8077 1.5625 16.8077 1.5625C16.8077 1.5625 16.8077 1.5625 16.8077 1.5625C16.8077 1.5625 16.8077 1.5625 16.8077 1.5625C16.8077 1.5625 16.8077 1.5625 16.8077 1.5625C16.8077 1.5625 16.8077 1.5625 16.8077 1.5625C16.8078 1.5625 16.8078 1.5625 16.8078 1.5625C16.8078 1.5625 16.8078 1.5625 16.8078 1.5625C16.8078 1.5625 16.8078 1.5625 16.8078 1.5625C16.8078 1.5625 16.8078 1.5625 16.8078 1.5625C16.8078 1.5625 16.8078 1.5625 16.8078 1.5625C16.8078 1.5625 16.8078 1.5625 16.8078 1.5625C16.8078 1.5625 16.8078 1.5625 16.8078 1.5625C16.8078 1.5625 16.8079 1.5625 16.8079 1.5625C16.8079 1.5625 16.8079 1.5625 16.8079 1.5625C16.8079 1.5625 16.8079 1.5625 16.8079 1.5625C16.8079 1.5625 16.8079 1.5625 16.8079 1.5625C16.8079 1.5625 16.8079 1.5625 16.8079 1.5625C16.8079 1.5625 16.8079 1.5625 16.8079 1.5625C16.8079 1.5625 16.8079 1.5625 16.8079 1.5625C16.8079 1.5625 16.808 1.5625 16.808 1.5625C16.808 1.5625 16.808 1.5625 16.808 1.5625C16.808 1.5625 16.808 1.5625 16.808 1.5625C16.808 1.5625 16.808 1.5625 16.808 1.5625C16.808 1.5625 16.808 1.5625 16.808 1.5625C16.808 1.5625 16.808 1.5625 16.808 1.5625C16.808 1.5625 16.808 1.5625 16.808 1.5625C16.808 1.5625 16.8081 1.5625 16.8081 1.5625C16.8081 1.5625 16.8081 1.5625 16.8081 1.5625C16.8081 1.5625 16.8081 1.5625 16.8081 1.5625C16.8081 1.5625 16.8081 1.5625 16.8081 1.5625C16.8081 1.5625 16.8081 1.5625 16.8081 1.5625C16.8081 1.5625 16.8081 1.5625 16.8081 1.5625C16.8081 1.5625 16.8081 1.5625 16.8081 1.5625C16.8081 1.5625 16.8081 1.5625 16.8082 1.5625C16.8082 1.5625 16.8082 1.5625 16.8082 1.5625C16.8082 1.5625 16.8082 1.5625 16.8082 1.5625C16.8082 1.5625 16.8082 1.5625 16.8082 1.5625C16.8082 1.5625 16.8082 1.5625 16.8082 1.5625C16.8082 1.5625 16.8082 1.5625 16.8082 1.5625C16.8082 1.5625 16.8082 1.5625 16.8082 1.5625C16.8082 1.5625 16.8082 1.5625 16.8083 1.5625C16.8083 1.5625 16.8083 1.5625 16.8083 1.5625C16.8083 1.5625 16.8083 1.5625 16.8083 1.5625C16.8083 1.5625 16.8083 1.5625 16.8083 1.5625C16.8083 1.5625 16.8083 1.5625 16.8083 1.5625C16.8083 1.5625 16.8083 1.5625 16.8083 1.5625C16.8083 1.5625 16.8083 1.5625 16.8083 1.5625C16.8083 1.5625 16.8083 1.5625 16.8083 1.5625C16.8084 1.5625 16.8084 1.5625 16.8084 1.5625C16.8084 1.5625 16.8084 1.5625 16.8084 1.5625C16.8084 1.5625 16.8084 1.5625 16.8084 1.5625C16.8084 1.5625 16.8084 1.5625 16.8084 1.5625C16.8084 1.5625 16.8084 1.5625 16.8084 1.5625C16.8084 1.5625 16.8084 1.5625 16.8084 1.5625C16.8084 1.5625 16.8084 1.5625 16.8084 1.5625C16.8085 1.5625 16.8085 1.5625 16.8085 1.5625C16.8085 1.5625 16.8085 1.5625 16.8085 1.5625C16.8085 1.5625 16.8085 1.5625 16.8085 1.5625C16.8085 1.5625 16.8085 1.5625 16.8085 1.5625C16.8085 1.5625 16.8085 1.5625 16.8085 1.5625C16.8085 1.5625 16.8085 1.5625 16.8085 1.5625C16.8085 1.5625 16.8085 1.5625 16.8085 1.5625C16.8086 1.5625 16.8086 1.5625 16.8086 1.5625C16.8086 1.5625 16.8086 1.5625 16.8086 1.5625C16.8086 1.5625 16.8086 1.5625 16.8086 1.5625C16.8086 1.5625 16.8086 1.5625 16.8086 1.5625C16.8086 1.5625 16.8086 1.5625 16.8086 1.5625C16.8086 1.5625 16.8086 1.5625 16.8086 1.5625C16.8086 1.5625 16.8086 1.5625 16.8086 1.5625C16.8086 1.5625 16.8087 1.5625 16.8087 1.5625C16.8087 1.5625 16.8087 1.5625 16.8087 1.5625C16.8087 1.5625 16.8087 1.5625 16.8087 1.5625C16.8087 1.5625 16.8087 1.5625 16.8087 1.5625C16.8087 1.5625 16.8087 1.5625 16.8087 1.5625C16.8087 1.5625 16.8087 1.5625 16.8087 1.5625C16.8087 1.5625 16.8087 1.5625 16.8087 1.5625C16.8087 1.5625 16.8088 1.5625 16.8088 1.5625C16.8088 1.5625 16.8088 1.5625 16.8088 1.5625C16.8088 1.5625 16.8088 1.5625 16.8088 1.5625C16.8088 1.5625 16.8088 1.5625 16.8088 1.5625C16.8088 1.5625 16.8088 1.5625 16.8088 1.5625C16.8088 1.5625 16.8088 1.5625 16.8088 1.5625C16.8088 1.5625 16.8088 1.5625 16.8088 1.5625C16.8088 1.5625 16.8089 1.5625 16.8089 1.5625C16.8089 1.5625 16.8089 1.5625 16.8089 1.5625C16.8089 1.5625 16.8089 1.5625 16.8089 1.5625C16.8089 1.5625 16.8089 1.5625 16.8089 1.5625C16.8089 1.5625 16.8089 1.5625 16.8089 1.5625C16.8089 1.5625 16.8089 1.5625 16.8089 1.5625C16.8089 1.5625 16.8089 1.5625 16.8089 1.5625C16.8089 1.5625 16.8089 1.5625 16.809 1.5625C16.809 1.5625 16.809 1.5625 16.809 1.5625C16.809 1.5625 16.809 1.5625 16.809 1.5625C16.809 1.5625 16.809 1.5625 16.809 1.5625C16.809 1.5625 16.809 1.5625 16.809 1.5625C16.809 1.5625 16.809 1.5625 16.809 1.5625C16.809 1.5625 16.809 1.5625 16.809 1.5625C16.809 1.5625 16.809 1.5625 16.8091 1.5625C16.8091 1.5625 16.8091 1.5625 16.8091 1.5625C16.8091 1.5625 16.8091 1.5625 16.8091 1.5625C16.8091 1.5625 16.8091 1.5625 16.8091 1.5625C16.8091 1.5625 16.8091 1.5625 16.8091 1.5625C16.8091 1.5625 16.8091 1.5625 16.8091 1.5625C16.8091 1.5625 16.8091 1.5625 16.8091 1.5625C16.8091 1.5625 16.8091 1.5625 16.8091 1.5625C16.8092 1.5625 16.8092 1.5625 16.8092 1.5625C16.8092 1.5625 16.8092 1.5625 16.8092 1.5625C16.8092 1.5625 16.8092 1.5625 16.8092 1.5625C16.8092 1.5625 16.8092 1.5625 16.8092 1.5625C16.8092 1.5625 16.8092 1.5625 16.8092 1.5625C16.8092 1.5625 16.8092 1.5625 16.8092 1.5625C16.8092 1.5625 16.8092 1.5625 16.8092 1.5625C16.8093 1.5625 16.8093 1.5625 16.8093 1.5625C16.8093 1.5625 16.8093 1.5625 16.8093 1.5625C16.8093 1.5625 16.8093 1.5625 16.8093 1.5625C16.8093 1.5625 16.8093 1.5625 16.8093 1.5625C16.8093 1.5625 16.8093 1.5625 16.8093 1.5625C16.8093 1.5625 16.8093 1.5625 16.8093 1.5625C16.8093 1.5625 16.8093 1.5625 16.8093 1.5625C16.8094 1.5625 16.8094 1.5625 16.8094 1.5625C16.8094 1.5625 16.8094 1.5625 16.8094 1.5625C16.8094 1.5625 16.8094 1.5625 16.8094 1.5625C16.8094 1.5625 16.8094 1.5625 16.8094 1.5625C16.8094 1.5625 16.8094 1.5625 16.8094 1.5625C16.8094 1.5625 16.8094 1.5625 16.8094 1.5625C16.8094 1.5625 16.8094 1.5625 16.8094 1.5625C16.8094 1.5625 16.8095 1.5625 16.8095 1.5625C16.8095 1.5625 16.8095 1.5625 16.8095 1.5625C16.8095 1.5625 16.8095 1.5625 16.8095 1.5625C16.8095 1.5625 16.8095 1.5625 16.8095 1.5625C16.8095 1.5625 16.8095 1.5625 16.8095 1.5625C16.8095 1.5625 16.8095 1.5625 16.8095 1.5625C16.8095 1.5625 16.8095 1.5625 16.8095 1.5625C16.8095 1.5625 16.8096 1.5625 16.8096 1.5625C16.8096 1.5625 16.8096 1.5625 16.8096 1.5625C16.8096 1.5625 16.8096 1.5625 16.8096 1.5625C16.8096 1.5625 16.8096 1.5625 16.8096 1.5625C16.8096 1.5625 16.8096 1.5625 16.8096 1.5625C16.8096 1.5625 16.8096 1.5625 16.8096 1.5625C16.8096 1.5625 16.8096 1.5625 16.8096 1.5625C16.8096 1.5625 16.8096 1.5625 16.8097 1.5625C16.8097 1.5625 16.8097 1.5625 16.8097 1.5625C16.8097 1.5625 16.8097 1.5625 16.8097 1.5625C16.8097 1.5625 16.8097 1.5625 16.8097 1.5625C16.8097 1.5625 16.8097 1.5625 16.8097 1.5625C16.8097 1.5625 16.8097 1.5625 16.8097 1.5625C16.8097 1.5625 16.8097 1.5625 16.8097 1.5625C16.8097 1.5625 16.8097 1.5625 16.8098 1.5625C16.8098 1.5625 16.8098 1.5625 16.8098 1.5625C16.8098 1.5625 16.8098 1.5625 16.8098 1.5625C16.8098 1.5625 16.8098 1.5625 16.8098 1.5625C16.8098 1.5625 16.8098 1.5625 16.8098 1.5625C16.8098 1.5625 16.8098 1.5625 16.8098 1.5625C16.8098 1.5625 16.8098 1.5625 16.8098 1.5625C16.8098 1.5625 16.8098 1.5625 16.8098 1.5625C16.8099 1.5625 16.8099 1.5625 16.8099 1.5625C16.8099 1.5625 16.8099 1.5625 16.8099 1.5625C16.8099 1.5625 16.8099 1.5625 16.8099 1.5625C16.8099 1.5625 16.8099 1.5625 16.8099 1.5625C16.8099 1.5625 16.8099 1.5625 16.8099 1.5625C16.8099 1.5625 16.8099 1.5625 16.8099 1.5625C16.8099 1.5625 16.8099 1.5625 16.8099 1.5625C16.81 1.5625 16.81 1.5625 16.81 1.5625C16.81 1.5625 16.81 1.5625 16.81 1.5625C16.81 1.5625 16.81 1.5625 16.81 1.5625C16.81 1.5625 16.81 1.5625 16.81 1.5625C16.81 1.5625 16.81 1.5625 16.81 1.5625C16.81 1.5625 16.81 1.5625 16.81 1.5625C16.81 1.5625 16.81 1.5625 16.81 1.5625C16.8101 1.5625 16.8101 1.5625 16.8101 1.5625C16.8101 1.5625 16.8101 1.5625 16.8101 1.5625C16.8101 1.5625 16.8101 1.5625 16.8101 1.5625C16.8101 1.5625 16.8101 1.5625 16.8101 1.5625C16.8101 1.5625 16.8101 1.5625 16.8101 1.5625C16.8101 1.5625 16.8101 1.5625 16.8101 1.5625C16.8101 1.5625 16.8101 1.5625 16.8101 1.5625C16.8101 1.5625 16.8102 1.5625 16.8102 1.5625C16.8102 1.5625 16.8102 1.5625 16.8102 1.5625C16.8102 1.5625 16.8102 1.5625 16.8102 1.5625C16.8102 1.5625 16.8102 1.5625 16.8102 1.5625C16.8102 1.5625 16.8102 1.5625 16.8102 1.5625C16.8102 1.5625 16.8102 1.5625 16.8102 1.5625C16.8102 1.5625 16.8102 1.5625 16.8102 1.5625C16.8102 1.5625 16.8103 1.5625 16.8103 1.5625C16.8103 1.5625 16.8103 1.5625 16.8103 1.5625C16.8103 1.5625 16.8103 1.5625 16.8103 1.5625C16.8103 1.5625 16.8103 1.5625 16.8103 1.5625V-1.5625ZM16.8031 -1.5625C16.7446 -1.5625 16.6871 -1.56064 16.63 -1.55709L16.8242 1.56187C16.8183 1.56224 16.8111 1.5625 16.8031 1.5625V-1.5625ZM16.628 -1.55696C16.2404 -1.53233 15.8701 -1.42751 15.5369 -1.25526L16.9717 1.52085C16.9249 1.54507 16.8746 1.55867 16.8262 1.56174L16.628 -1.55696ZM15.5769 -1.27523C15.396 -1.18817 13.6055 -0.3625 12.0031 -0.3625V2.7625C14.3784 2.7625 16.7335 1.6362 16.9317 1.54083L15.5769 -1.27523ZM12.0031 -0.3625C10.3242 -0.3625 8.45056 -1.26522 8.41747 -1.28119L7.05922 1.53319C7.05366 1.53051 7.07288 1.53986 7.09537 1.55057C7.11876 1.56171 7.15035 1.57657 7.18958 1.59461C7.26795 1.63067 7.37692 1.6795 7.51199 1.73676C7.78131 1.85094 8.15867 2.00049 8.60754 2.14966C9.48423 2.44102 10.7261 2.7625 12.0031 2.7625V-0.3625ZM8.43185 -1.27416C8.04316 -1.46668 7.62258 -1.5617 7.20434 -1.5617V1.5633C7.14929 1.5633 7.09434 1.55068 7.04484 1.52616L8.43185 -1.27416ZM7.20434 -1.5617C6.52592 -1.5617 5.85309 -1.31167 5.33061 -0.829779L7.44927 1.46737C7.38044 1.53085 7.29158 1.5633 7.20434 1.5633V-1.5617ZM5.32989 -0.829119C4.49066 -0.0541313 4.21156 1.16016 4.63795 2.22626L7.53948 1.06577C7.59632 1.20787 7.55806 1.36691 7.44998 1.46671L5.32989 -0.829119ZM4.63795 2.22626L6.64636 7.24784L9.54789 6.08735L7.53949 1.06577L4.63795 2.22626ZM7.1586 5.41836C5.69548 6.51757 4.18982 8.43784 3.32518 9.61666L5.84504 11.4649C6.71721 10.2758 7.98355 8.70724 9.03565 7.91683L7.1586 5.41836ZM3.32509 9.61679C2.66806 10.5128 1.77031 11.8321 1.03047 13.2736C0.312075 14.6734 -0.359375 16.3799 -0.359375 18H2.76562C2.76562 17.1425 3.15378 15.9804 3.81069 14.7005C4.44615 13.4623 5.2394 12.2908 5.84513 11.4648L3.32509 9.61679ZM-0.359375 18C-0.359375 22.1713 3.03179 25.5625 7.20313 25.5625V22.4375C4.75768 22.4375 2.76562 20.4454 2.76562 18H-0.359375ZM7.20313 25.5625H16.8031V22.4375H7.20313V25.5625ZM16.8031 25.5625C20.9745 25.5625 24.3656 22.1713 24.3656 18H21.2406C21.2406 20.4454 19.2486 22.4375 16.8031 22.4375V25.5625ZM24.3656 18C24.3656 16.3799 23.6942 14.6734 22.9757 13.2735C22.2358 11.8319 21.338 10.5125 20.6807 9.61635L18.1608 11.4645C18.7667 12.2906 19.56 13.4623 20.1955 14.7005C20.8525 15.9805 21.2406 17.1425 21.2406 18H24.3656ZM7.20313 1.2C6.50435 2.59754 6.50464 2.59768 6.50493 2.59783C6.50504 2.59788 6.50534 2.59803 6.50556 2.59814C6.506 2.59836 6.50647 2.5986 6.50699 2.59886C6.50801 2.59937 6.50919 2.59995 6.51051 2.60061C6.51316 2.60192 6.5164 2.60353 6.52023 2.60541C6.52787 2.60917 6.53786 2.61405 6.5501 2.61998C6.57458 2.63182 6.60814 2.64786 6.65018 2.66747C6.7342 2.70668 6.85245 2.76037 7.00013 2.82366C7.29471 2.94991 7.71066 3.1162 8.20902 3.28232C9.18701 3.60831 10.5668 3.9625 12.0031 3.9625V0.8375C11.0395 0.8375 10.0192 0.591686 9.19723 0.317682C8.79559 0.183801 8.46154 0.0500867 8.23112 -0.0486641C8.1163 -0.0978727 8.0283 -0.137933 7.9717 -0.164349C7.94342 -0.177543 7.92308 -0.18729 7.91123 -0.193022C7.90531 -0.195887 7.90152 -0.197744 7.89994 -0.198522C7.89915 -0.198911 7.89891 -0.19903 7.89923 -0.19887C7.89939 -0.19879 7.8997 -0.19864 7.90014 -0.198419C7.90036 -0.198309 7.90062 -0.19818 7.90091 -0.198034C7.90106 -0.197961 7.9013 -0.197838 7.90138 -0.197802C7.90163 -0.197674 7.9019 -0.197542 7.20313 1.2ZM12.0031 3.9625C13.4395 3.9625 14.8192 3.60831 15.7972 3.28232C16.2956 3.1162 16.7115 2.94991 17.0061 2.82366C17.1538 2.76037 17.2721 2.70668 17.3561 2.66747C17.3981 2.64786 17.4317 2.63182 17.4562 2.61998C17.4684 2.61405 17.4784 2.60917 17.486 2.60541C17.4898 2.60353 17.4931 2.60192 17.4957 2.60061C17.4971 2.59995 17.4982 2.59937 17.4993 2.59886C17.4998 2.5986 17.5003 2.59836 17.5007 2.59814C17.5009 2.59803 17.5012 2.59788 17.5013 2.59783C17.5016 2.59768 17.5019 2.59754 16.8031 1.2C16.1044 -0.197542 16.1046 -0.197674 16.1049 -0.197802C16.1049 -0.197838 16.1052 -0.197961 16.1053 -0.198034C16.1056 -0.19818 16.1059 -0.198309 16.1061 -0.198419C16.1066 -0.19864 16.1069 -0.19879 16.107 -0.19887C16.1073 -0.19903 16.1071 -0.198911 16.1063 -0.198522C16.1047 -0.197744 16.1009 -0.195887 16.095 -0.193022C16.0832 -0.18729 16.0628 -0.177543 16.0346 -0.164349C15.9779 -0.137933 15.8899 -0.0978727 15.7751 -0.0486641C15.5447 0.0500867 15.2107 0.183801 14.809 0.317682C13.987 0.591686 12.9668 0.8375 12.0031 0.8375V3.9625ZM15.3524 0.619702L13.4324 5.4197L16.3339 6.5803L18.2539 1.7803L15.3524 0.619702ZM14.8831 4.4375H9.12313V7.5625H14.8831V4.4375ZM10.5739 5.4197L8.65387 0.619702L5.75238 1.7803L7.67238 6.5803L10.5739 5.4197ZM16.8031 21.2375H7.20313V24.3625H16.8031V21.2375ZM7.20313 21.2375C5.41496 21.2375 3.96563 19.7879 3.96563 18H0.840625C0.840625 21.5136 3.68889 24.3625 7.20313 24.3625V21.2375ZM3.96563 18C3.96563 17.4656 4.21026 16.6036 4.76134 15.4836C5.29147 14.4062 6.02562 13.2479 6.81313 12.174C7.60048 11.1004 8.41193 10.1509 9.07673 9.4861C9.41239 9.15045 9.68204 8.91619 9.87139 8.77776C9.96697 8.70788 10.0113 8.68522 10.0098 8.68596C10.0073 8.68715 9.97569 8.70269 9.91905 8.7194C9.86546 8.73521 9.75469 8.7625 9.60313 8.7625V5.6375C9.17924 5.6375 8.83258 5.78318 8.63925 5.87752C8.41801 5.98549 8.21038 6.12102 8.02705 6.25505C7.65859 6.52444 7.26261 6.8808 6.86702 7.2764C6.06932 8.07409 5.15577 9.14964 4.29312 10.326C3.43063 11.5021 2.58978 12.8188 1.95741 14.1039C1.34599 15.3464 0.840625 16.7344 0.840625 18H3.96563ZM9.60313 8.7625H14.4031V5.6375H9.60313V8.7625ZM14.4031 8.7625C14.2516 8.7625 14.1408 8.73521 14.0872 8.7194C14.0306 8.70269 13.9989 8.68715 13.9965 8.68596C13.995 8.68522 14.0393 8.70788 14.1349 8.77776C14.3242 8.91619 14.5939 9.15045 14.9295 9.4861C15.5943 10.1509 16.4058 11.1004 17.1931 12.174C17.9806 13.2479 18.7148 14.4062 19.2449 15.4836C19.796 16.6036 20.0406 17.4656 20.0406 18H23.1656C23.1656 16.7344 22.6603 15.3464 22.0488 14.1039C21.4165 12.8188 20.5756 11.5021 19.7131 10.326C18.8505 9.14964 17.9369 8.07409 17.1392 7.2764C16.7436 6.8808 16.3477 6.52444 15.9792 6.25505C15.7959 6.12102 15.5882 5.98549 15.367 5.87752C15.1737 5.78318 14.827 5.6375 14.4031 5.6375V8.7625ZM20.0406 18C20.0406 19.7879 18.5913 21.2375 16.8031 21.2375V24.3625C20.3174 24.3625 23.1656 21.5136 23.1656 18H20.0406Z" fill="#F0F4FF" mask="url(#path-2-inside-1_2608_23585)"/>
</g>
<defs>
<clipPath id="clip0_2608_23585">
<rect width="24" height="24" fill="white"/>
</clipPath>
</defs>
</svg>
