<svg width="16" height="16" viewBox="0 0 16 16" fill="none" xmlns="http://www.w3.org/2000/svg">
<path fill-rule="evenodd" clip-rule="evenodd" d="M4.532 0H11.4672C14.1902 0 16 1.9436 16 4.7328V11.2672C16 14.0565 14.1901 16 11.4664 16H4.532C1.8091 16 0 14.0566 0 11.2672V4.7328C0 1.94608 1.81394 0 4.532 0ZM11.4671 1.19987H4.53187C2.49614 1.19987 1.19987 2.59057 1.19987 4.73267V11.2671C1.19987 13.4121 2.49168 14.7999 4.53187 14.7999H11.4663C13.5074 14.7999 14.7999 13.412 14.7999 11.2671V4.73267C14.7999 2.58784 13.5075 1.19987 11.4671 1.19987Z" fill="#0968CA"/>
</svg>
