<svg width="9" height="8" viewBox="0 0 9 8" fill="none" xmlns="http://www.w3.org/2000/svg">
<path d="M8.774 1.63329C8.85716 1.53165 8.91949 1.41462 8.95742 1.28889C8.99535 1.16316 9.00815 1.03119 8.99508 0.900515C8.98201 0.76984 8.94333 0.643019 8.88124 0.527292C8.81916 0.411566 8.73489 0.3092 8.63325 0.226041C8.53161 0.142881 8.41458 0.080556 8.28885 0.0426238C8.16312 0.00469147 8.03115 -0.00810501 7.90047 0.00496483C7.7698 0.0180347 7.64298 0.0567151 7.52725 0.118797C7.41152 0.18088 7.30916 0.265148 7.226 0.366791L3.333 5.12479L2.1 4.19979C1.99494 4.121 1.87539 4.06367 1.74818 4.03108C1.62097 3.99849 1.48858 3.99127 1.35858 4.00984C1.22858 4.02841 1.10351 4.07241 0.990506 4.13932C0.877507 4.20622 0.778793 4.29473 0.7 4.39979C0.621207 4.50485 0.563878 4.6244 0.531286 4.75161C0.498695 4.87882 0.491479 5.01121 0.510051 5.14121C0.547558 5.40376 0.687827 5.64066 0.9 5.79979L2.5165 7.01229C2.82598 7.24444 3.21318 7.34805 3.59724 7.30146C3.9813 7.25487 4.3325 7.0617 4.5775 6.76229L8.774 1.63329Z" fill="#0968CA"/>
</svg>
